<svg width="1363" height="163" viewBox="0 0 1363 163" fill="none" xmlns="http://www.w3.org/2000/svg">
<path d="M0 15C0 6.71573 6.71573 0 15 0H37V163H15C6.71573 163 0 156.284 0 148V15Z" fill="#424242"/>
<rect width="1097" height="163" transform="translate(37)" fill="#F0F0F0"/>
<path d="M101.906 53.9219L94.3945 51.2383V48.0859L104.602 52.375V54.6367L101.906 53.9219ZM94.3945 56.1719L101.918 53.4297L104.602 52.7852V55.0352L94.3945 59.3242V56.1719ZM124.348 58.2578V61H115.266V58.2578H124.348ZM116.414 43.9375V61H112.898V43.9375H116.414ZM123.164 50.8867V53.5586H115.266V50.8867H123.164ZM124.336 43.9375V46.6914H115.266V43.9375H124.336ZM131.191 58.5977C131.605 58.5977 131.973 58.5195 132.293 58.3633C132.613 58.1992 132.863 57.9727 133.043 57.6836C133.23 57.3867 133.328 57.0391 133.336 56.6406H136.512C136.504 57.5312 136.266 58.3242 135.797 59.0195C135.328 59.707 134.699 60.25 133.91 60.6484C133.121 61.0391 132.238 61.2344 131.262 61.2344C130.277 61.2344 129.418 61.0703 128.684 60.7422C127.957 60.4141 127.352 59.9609 126.867 59.3828C126.383 58.7969 126.02 58.1172 125.777 57.3438C125.535 56.5625 125.414 55.7266 125.414 54.8359V54.4961C125.414 53.5977 125.535 52.7617 125.777 51.9883C126.02 51.207 126.383 50.5273 126.867 49.9492C127.352 49.3633 127.957 48.9062 128.684 48.5781C129.41 48.25 130.262 48.0859 131.238 48.0859C132.277 48.0859 133.188 48.2852 133.969 48.6836C134.758 49.082 135.375 49.6523 135.82 50.3945C136.273 51.1289 136.504 52 136.512 53.0078H133.336C133.328 52.5859 133.238 52.2031 133.066 51.8594C132.902 51.5156 132.66 51.2422 132.34 51.0391C132.027 50.8281 131.641 50.7227 131.18 50.7227C130.688 50.7227 130.285 50.8281 129.973 51.0391C129.66 51.2422 129.418 51.5234 129.246 51.8828C129.074 52.2344 128.953 52.6367 128.883 53.0898C128.82 53.5352 128.789 54.0039 128.789 54.4961V54.8359C128.789 55.3281 128.82 55.8008 128.883 56.2539C128.945 56.707 129.062 57.1094 129.234 57.4609C129.414 57.8125 129.66 58.0898 129.973 58.293C130.285 58.4961 130.691 58.5977 131.191 58.5977ZM137.93 54.7891V54.543C137.93 53.6133 138.062 52.7578 138.328 51.9766C138.594 51.1875 138.98 50.5039 139.488 49.9258C139.996 49.3477 140.621 48.8984 141.363 48.5781C142.105 48.25 142.957 48.0859 143.918 48.0859C144.879 48.0859 145.734 48.25 146.484 48.5781C147.234 48.8984 147.863 49.3477 148.371 49.9258C148.887 50.5039 149.277 51.1875 149.543 51.9766C149.809 52.7578 149.941 53.6133 149.941 54.543V54.7891C149.941 55.7109 149.809 56.5664 149.543 57.3555C149.277 58.1367 148.887 58.8203 148.371 59.4062C147.863 59.9844 147.238 60.4336 146.496 60.7539C145.754 61.0742 144.902 61.2344 143.941 61.2344C142.98 61.2344 142.125 61.0742 141.375 60.7539C140.633 60.4336 140.004 59.9844 139.488 59.4062C138.98 58.8203 138.594 58.1367 138.328 57.3555C138.062 56.5664 137.93 55.7109 137.93 54.7891ZM141.305 54.543V54.7891C141.305 55.3203 141.352 55.8164 141.445 56.2773C141.539 56.7383 141.688 57.1445 141.891 57.4961C142.102 57.8398 142.375 58.1094 142.711 58.3047C143.047 58.5 143.457 58.5977 143.941 58.5977C144.41 58.5977 144.812 58.5 145.148 58.3047C145.484 58.1094 145.754 57.8398 145.957 57.4961C146.16 57.1445 146.309 56.7383 146.402 56.2773C146.504 55.8164 146.555 55.3203 146.555 54.7891V54.543C146.555 54.0273 146.504 53.543 146.402 53.0898C146.309 52.6289 146.156 52.2227 145.945 51.8711C145.742 51.5117 145.473 51.2305 145.137 51.0273C144.801 50.8242 144.395 50.7227 143.918 50.7227C143.441 50.7227 143.035 50.8242 142.699 51.0273C142.371 51.2305 142.102 51.5117 141.891 51.8711C141.688 52.2227 141.539 52.6289 141.445 53.0898C141.352 53.543 141.305 54.0273 141.305 54.543ZM161.109 56.5352C161.109 56.2305 161.062 55.957 160.969 55.7148C160.883 55.4648 160.719 55.2383 160.477 55.0352C160.234 54.8242 159.895 54.6172 159.457 54.4141C159.02 54.2109 158.453 54 157.758 53.7812C156.984 53.5312 156.25 53.25 155.555 52.9375C154.867 52.625 154.258 52.2617 153.727 51.8477C153.203 51.4258 152.789 50.9375 152.484 50.3828C152.188 49.8281 152.039 49.1836 152.039 48.4492C152.039 47.7383 152.195 47.0938 152.508 46.5156C152.82 45.9297 153.258 45.4297 153.82 45.0156C154.383 44.5938 155.047 44.2695 155.812 44.043C156.586 43.8164 157.434 43.7031 158.355 43.7031C159.613 43.7031 160.711 43.9297 161.648 44.3828C162.586 44.8359 163.312 45.457 163.828 46.2461C164.352 47.0352 164.613 47.9375 164.613 48.9531H161.121C161.121 48.4531 161.016 48.0156 160.805 47.6406C160.602 47.2578 160.289 46.957 159.867 46.7383C159.453 46.5195 158.93 46.4102 158.297 46.4102C157.688 46.4102 157.18 46.5039 156.773 46.6914C156.367 46.8711 156.062 47.1172 155.859 47.4297C155.656 47.7344 155.555 48.0781 155.555 48.4609C155.555 48.75 155.625 49.0117 155.766 49.2461C155.914 49.4805 156.133 49.6992 156.422 49.9023C156.711 50.1055 157.066 50.2969 157.488 50.4766C157.91 50.6562 158.398 50.832 158.953 51.0039C159.883 51.2852 160.699 51.6016 161.402 51.9531C162.113 52.3047 162.707 52.6992 163.184 53.1367C163.66 53.5742 164.02 54.0703 164.262 54.625C164.504 55.1797 164.625 55.8086 164.625 56.5117C164.625 57.2539 164.48 57.918 164.191 58.5039C163.902 59.0898 163.484 59.5859 162.938 59.9922C162.391 60.3984 161.738 60.707 160.98 60.918C160.223 61.1289 159.375 61.2344 158.438 61.2344C157.594 61.2344 156.762 61.125 155.941 60.9062C155.121 60.6797 154.375 60.3398 153.703 59.8867C153.039 59.4336 152.508 58.8555 152.109 58.1523C151.711 57.4492 151.512 56.6172 151.512 55.6562H155.039C155.039 56.1875 155.121 56.6367 155.285 57.0039C155.449 57.3711 155.68 57.668 155.977 57.8945C156.281 58.1211 156.641 58.2852 157.055 58.3867C157.477 58.4883 157.938 58.5391 158.438 58.5391C159.047 58.5391 159.547 58.4531 159.938 58.2812C160.336 58.1094 160.629 57.8711 160.816 57.5664C161.012 57.2617 161.109 56.918 161.109 56.5352ZM172.641 61.2344C171.656 61.2344 170.773 61.0781 169.992 60.7656C169.211 60.4453 168.547 60.0039 168 59.4414C167.461 58.8789 167.047 58.2266 166.758 57.4844C166.469 56.7344 166.324 55.9375 166.324 55.0938V54.625C166.324 53.6641 166.461 52.7852 166.734 51.9883C167.008 51.1914 167.398 50.5 167.906 49.9141C168.422 49.3281 169.047 48.8789 169.781 48.5664C170.516 48.2461 171.344 48.0859 172.266 48.0859C173.164 48.0859 173.961 48.2344 174.656 48.5312C175.352 48.8281 175.934 49.25 176.402 49.7969C176.879 50.3438 177.238 51 177.48 51.7656C177.723 52.5234 177.844 53.3672 177.844 54.2969V55.7031H167.766V53.4531H174.527V53.1953C174.527 52.7266 174.441 52.3086 174.27 51.9414C174.105 51.5664 173.855 51.2695 173.52 51.0508C173.184 50.832 172.754 50.7227 172.23 50.7227C171.785 50.7227 171.402 50.8203 171.082 51.0156C170.762 51.2109 170.5 51.4844 170.297 51.8359C170.102 52.1875 169.953 52.6016 169.852 53.0781C169.758 53.5469 169.711 54.0625 169.711 54.625V55.0938C169.711 55.6016 169.781 56.0703 169.922 56.5C170.07 56.9297 170.277 57.3008 170.543 57.6133C170.816 57.9258 171.145 58.168 171.527 58.3398C171.918 58.5117 172.359 58.5977 172.852 58.5977C173.461 58.5977 174.027 58.4805 174.551 58.2461C175.082 58.0039 175.539 57.6406 175.922 57.1562L177.562 58.9375C177.297 59.3203 176.934 59.6875 176.473 60.0391C176.02 60.3906 175.473 60.6797 174.832 60.9062C174.191 61.125 173.461 61.2344 172.641 61.2344ZM183.07 51.0273V61H179.695V48.3203H182.859L183.07 51.0273ZM182.578 54.2148H181.664C181.664 53.2773 181.785 52.4336 182.027 51.6836C182.27 50.9258 182.609 50.2812 183.047 49.75C183.484 49.2109 184.004 48.8008 184.605 48.5195C185.215 48.2305 185.895 48.0859 186.645 48.0859C187.238 48.0859 187.781 48.1719 188.273 48.3438C188.766 48.5156 189.188 48.7891 189.539 49.1641C189.898 49.5391 190.172 50.0352 190.359 50.6523C190.555 51.2695 190.652 52.0234 190.652 52.9141V61H187.254V52.9023C187.254 52.3398 187.176 51.9023 187.02 51.5898C186.863 51.2773 186.633 51.0586 186.328 50.9336C186.031 50.8008 185.664 50.7344 185.227 50.7344C184.773 50.7344 184.379 50.8242 184.043 51.0039C183.715 51.1836 183.441 51.4336 183.223 51.7539C183.012 52.0664 182.852 52.4336 182.742 52.8555C182.633 53.2773 182.578 53.7305 182.578 54.2148ZM200.074 57.4961C200.074 57.2539 200.004 57.0352 199.863 56.8398C199.723 56.6445 199.461 56.4648 199.078 56.3008C198.703 56.1289 198.16 55.9727 197.449 55.832C196.809 55.6914 196.211 55.5156 195.656 55.3047C195.109 55.0859 194.633 54.8242 194.227 54.5195C193.828 54.2148 193.516 53.8555 193.289 53.4414C193.062 53.0195 192.949 52.5391 192.949 52C192.949 51.4688 193.062 50.9688 193.289 50.5C193.523 50.0312 193.855 49.6172 194.285 49.2578C194.723 48.8906 195.254 48.6055 195.879 48.4023C196.512 48.1914 197.223 48.0859 198.012 48.0859C199.113 48.0859 200.059 48.2617 200.848 48.6133C201.645 48.9648 202.254 49.4492 202.676 50.0664C203.105 50.6758 203.32 51.3711 203.32 52.1523H199.945C199.945 51.8242 199.875 51.5312 199.734 51.2734C199.602 51.0078 199.391 50.8008 199.102 50.6523C198.82 50.4961 198.453 50.418 198 50.418C197.625 50.418 197.301 50.4844 197.027 50.6172C196.754 50.7422 196.543 50.9141 196.395 51.1328C196.254 51.3438 196.184 51.5781 196.184 51.8359C196.184 52.0312 196.223 52.207 196.301 52.3633C196.387 52.5117 196.523 52.6484 196.711 52.7734C196.898 52.8984 197.141 53.0156 197.438 53.125C197.742 53.2266 198.117 53.3203 198.562 53.4062C199.477 53.5938 200.293 53.8398 201.012 54.1445C201.73 54.4414 202.301 54.8477 202.723 55.3633C203.145 55.8711 203.355 56.5391 203.355 57.3672C203.355 57.9297 203.23 58.4453 202.98 58.9141C202.73 59.3828 202.371 59.793 201.902 60.1445C201.434 60.4883 200.871 60.7578 200.215 60.9531C199.566 61.1406 198.836 61.2344 198.023 61.2344C196.844 61.2344 195.844 61.0234 195.023 60.6016C194.211 60.1797 193.594 59.6445 193.172 58.9961C192.758 58.3398 192.551 57.668 192.551 56.9805H195.75C195.766 57.4414 195.883 57.8125 196.102 58.0938C196.328 58.375 196.613 58.5781 196.957 58.7031C197.309 58.8281 197.688 58.8906 198.094 58.8906C198.531 58.8906 198.895 58.832 199.184 58.7148C199.473 58.5898 199.691 58.4258 199.84 58.2227C199.996 58.0117 200.074 57.7695 200.074 57.4961ZM211.383 61.2344C210.398 61.2344 209.516 61.0781 208.734 60.7656C207.953 60.4453 207.289 60.0039 206.742 59.4414C206.203 58.8789 205.789 58.2266 205.5 57.4844C205.211 56.7344 205.066 55.9375 205.066 55.0938V54.625C205.066 53.6641 205.203 52.7852 205.477 51.9883C205.75 51.1914 206.141 50.5 206.648 49.9141C207.164 49.3281 207.789 48.8789 208.523 48.5664C209.258 48.2461 210.086 48.0859 211.008 48.0859C211.906 48.0859 212.703 48.2344 213.398 48.5312C214.094 48.8281 214.676 49.25 215.145 49.7969C215.621 50.3438 215.98 51 216.223 51.7656C216.465 52.5234 216.586 53.3672 216.586 54.2969V55.7031H206.508V53.4531H213.27V53.1953C213.27 52.7266 213.184 52.3086 213.012 51.9414C212.848 51.5664 212.598 51.2695 212.262 51.0508C211.926 50.832 211.496 50.7227 210.973 50.7227C210.527 50.7227 210.145 50.8203 209.824 51.0156C209.504 51.2109 209.242 51.4844 209.039 51.8359C208.844 52.1875 208.695 52.6016 208.594 53.0781C208.5 53.5469 208.453 54.0625 208.453 54.625V55.0938C208.453 55.6016 208.523 56.0703 208.664 56.5C208.812 56.9297 209.02 57.3008 209.285 57.6133C209.559 57.9258 209.887 58.168 210.27 58.3398C210.66 58.5117 211.102 58.5977 211.594 58.5977C212.203 58.5977 212.77 58.4805 213.293 58.2461C213.824 58.0039 214.281 57.6406 214.664 57.1562L216.305 58.9375C216.039 59.3203 215.676 59.6875 215.215 60.0391C214.762 60.3906 214.215 60.6797 213.574 60.9062C212.934 61.125 212.203 61.2344 211.383 61.2344Z" fill="#888888"/>
<path d="M112.125 84.875V119H103.898V84.875H112.125ZM122.391 84.875V91.2266H93.8672V84.875H122.391ZM135.68 119.469C133.617 119.469 131.773 119.148 130.148 118.508C128.523 117.852 127.148 116.953 126.023 115.812C124.914 114.672 124.062 113.359 123.469 111.875C122.891 110.391 122.602 108.82 122.602 107.164V106.273C122.602 104.414 122.859 102.695 123.375 101.117C123.891 99.5234 124.656 98.1328 125.672 96.9453C126.688 95.7578 127.961 94.8359 129.492 94.1797C131.023 93.5078 132.805 93.1719 134.836 93.1719C136.633 93.1719 138.242 93.4609 139.664 94.0391C141.086 94.6172 142.289 95.4453 143.273 96.5234C144.273 97.6016 145.031 98.9062 145.547 100.438C146.078 101.969 146.344 103.688 146.344 105.594V108.805H125.625V103.859H138.633V103.25C138.648 102.406 138.5 101.688 138.188 101.094C137.891 100.5 137.453 100.047 136.875 99.7344C136.297 99.4219 135.594 99.2656 134.766 99.2656C133.906 99.2656 133.195 99.4531 132.633 99.8281C132.086 100.203 131.656 100.719 131.344 101.375C131.047 102.016 130.836 102.758 130.711 103.602C130.586 104.445 130.523 105.336 130.523 106.273V107.164C130.523 108.102 130.648 108.953 130.898 109.719C131.164 110.484 131.539 111.141 132.023 111.688C132.523 112.219 133.117 112.633 133.805 112.93C134.508 113.227 135.305 113.375 136.195 113.375C137.273 113.375 138.336 113.172 139.383 112.766C140.43 112.359 141.328 111.688 142.078 110.75L145.664 115.016C145.148 115.75 144.414 116.461 143.461 117.148C142.523 117.836 141.398 118.398 140.086 118.836C138.773 119.258 137.305 119.469 135.68 119.469ZM160.266 113.375C161 113.375 161.625 113.242 162.141 112.977C162.672 112.695 163.07 112.305 163.336 111.805C163.617 111.289 163.75 110.672 163.734 109.953H171.164C171.18 111.859 170.711 113.531 169.758 114.969C168.82 116.391 167.539 117.5 165.914 118.297C164.305 119.078 162.484 119.469 160.453 119.469C158.469 119.469 156.734 119.148 155.25 118.508C153.766 117.852 152.523 116.945 151.523 115.789C150.539 114.617 149.797 113.25 149.297 111.688C148.812 110.125 148.57 108.43 148.57 106.602V106.062C148.57 104.234 148.812 102.539 149.297 100.977C149.797 99.3984 150.539 98.0312 151.523 96.875C152.523 95.7031 153.758 94.7969 155.227 94.1562C156.711 93.5 158.438 93.1719 160.406 93.1719C162.516 93.1719 164.375 93.5703 165.984 94.3672C167.609 95.1641 168.883 96.3203 169.805 97.8359C170.727 99.3516 171.18 101.188 171.164 103.344H163.734C163.75 102.578 163.633 101.891 163.383 101.281C163.133 100.672 162.742 100.188 162.211 99.8281C161.695 99.4531 161.031 99.2656 160.219 99.2656C159.406 99.2656 158.75 99.4453 158.25 99.8047C157.75 100.164 157.367 100.664 157.102 101.305C156.852 101.93 156.68 102.648 156.586 103.461C156.508 104.273 156.469 105.141 156.469 106.062V106.602C156.469 107.539 156.508 108.422 156.586 109.25C156.68 110.062 156.859 110.781 157.125 111.406C157.391 112.016 157.773 112.5 158.273 112.859C158.773 113.203 159.438 113.375 160.266 113.375ZM182.273 83V119H174.375V83H182.273ZM181.336 105.453L179.484 105.5C179.484 103.719 179.703 102.078 180.141 100.578C180.578 99.0781 181.203 97.7734 182.016 96.6641C182.828 95.5547 183.805 94.6953 184.945 94.0859C186.086 93.4766 187.352 93.1719 188.742 93.1719C189.992 93.1719 191.133 93.3516 192.164 93.7109C193.211 94.0703 194.109 94.6484 194.859 95.4453C195.625 96.2422 196.211 97.2812 196.617 98.5625C197.039 99.8438 197.25 101.406 197.25 103.25V119H189.305V103.203C189.305 102.172 189.156 101.375 188.859 100.812C188.578 100.234 188.172 99.8359 187.641 99.6172C187.109 99.3828 186.461 99.2656 185.695 99.2656C184.773 99.2656 184.023 99.4219 183.445 99.7344C182.867 100.047 182.422 100.484 182.109 101.047C181.812 101.594 181.609 102.242 181.5 102.992C181.391 103.742 181.336 104.562 181.336 105.453ZM231.539 109.93C231.539 109.398 231.461 108.922 231.305 108.5C231.148 108.062 230.859 107.656 230.438 107.281C230.016 106.906 229.406 106.531 228.609 106.156C227.828 105.766 226.797 105.359 225.516 104.938C224.016 104.438 222.57 103.875 221.18 103.25C219.789 102.609 218.547 101.867 217.453 101.023C216.359 100.164 215.492 99.1641 214.852 98.0234C214.211 96.8672 213.891 95.5234 213.891 93.9922C213.891 92.5234 214.219 91.2031 214.875 90.0312C215.531 88.8438 216.445 87.8359 217.617 87.0078C218.805 86.1641 220.195 85.5234 221.789 85.0859C223.383 84.6328 225.125 84.4062 227.016 84.4062C229.516 84.4062 231.719 84.8438 233.625 85.7188C235.547 86.5781 237.047 87.8047 238.125 89.3984C239.219 90.9766 239.766 92.8438 239.766 95H231.586C231.586 94.1406 231.406 93.3828 231.047 92.7266C230.703 92.0703 230.18 91.5547 229.477 91.1797C228.773 90.8047 227.891 90.6172 226.828 90.6172C225.797 90.6172 224.93 90.7734 224.227 91.0859C223.523 91.3984 222.992 91.8203 222.633 92.3516C222.273 92.8672 222.094 93.4375 222.094 94.0625C222.094 94.5781 222.234 95.0469 222.516 95.4688C222.812 95.875 223.227 96.2578 223.758 96.6172C224.305 96.9766 224.961 97.3203 225.727 97.6484C226.508 97.9766 227.383 98.2969 228.352 98.6094C230.164 99.1875 231.773 99.8359 233.18 100.555C234.602 101.258 235.797 102.062 236.766 102.969C237.75 103.859 238.492 104.875 238.992 106.016C239.508 107.156 239.766 108.445 239.766 109.883C239.766 111.414 239.469 112.773 238.875 113.961C238.281 115.148 237.43 116.156 236.32 116.984C235.211 117.797 233.883 118.414 232.336 118.836C230.789 119.258 229.062 119.469 227.156 119.469C225.406 119.469 223.68 119.25 221.977 118.812C220.289 118.359 218.758 117.672 217.383 116.75C216.008 115.812 214.906 114.617 214.078 113.164C213.266 111.695 212.859 109.953 212.859 107.938H221.109C221.109 108.938 221.242 109.781 221.508 110.469C221.773 111.156 222.164 111.711 222.68 112.133C223.195 112.539 223.828 112.836 224.578 113.023C225.328 113.195 226.188 113.281 227.156 113.281C228.203 113.281 229.047 113.133 229.688 112.836C230.328 112.523 230.797 112.117 231.094 111.617C231.391 111.102 231.539 110.539 231.539 109.93ZM256.992 93.6406V99.125H241.711V93.6406H256.992ZM244.922 87.3359H252.82V110.727C252.82 111.398 252.898 111.922 253.055 112.297C253.211 112.656 253.477 112.914 253.852 113.07C254.242 113.211 254.758 113.281 255.398 113.281C255.852 113.281 256.227 113.273 256.523 113.258C256.82 113.227 257.102 113.188 257.367 113.141V118.789C256.695 119.008 255.992 119.172 255.258 119.281C254.523 119.406 253.742 119.469 252.914 119.469C251.227 119.469 249.781 119.203 248.578 118.672C247.391 118.141 246.484 117.305 245.859 116.164C245.234 115.023 244.922 113.539 244.922 111.711V87.3359ZM273.305 112.625V102.172C273.305 101.453 273.203 100.836 273 100.32C272.797 99.8047 272.477 99.4062 272.039 99.125C271.602 98.8281 271.016 98.6797 270.281 98.6797C269.688 98.6797 269.18 98.7812 268.758 98.9844C268.336 99.1875 268.016 99.4922 267.797 99.8984C267.578 100.305 267.469 100.82 267.469 101.445H259.57C259.57 100.273 259.828 99.1875 260.344 98.1875C260.875 97.1719 261.625 96.2891 262.594 95.5391C263.578 94.7891 264.75 94.2109 266.109 93.8047C267.484 93.3828 269.016 93.1719 270.703 93.1719C272.719 93.1719 274.516 93.5078 276.094 94.1797C277.688 94.8516 278.945 95.8594 279.867 97.2031C280.789 98.5312 281.25 100.203 281.25 102.219V112.602C281.25 114.258 281.344 115.516 281.531 116.375C281.719 117.219 281.984 117.961 282.328 118.602V119H274.406C274.031 118.219 273.75 117.266 273.562 116.141C273.391 115 273.305 113.828 273.305 112.625ZM274.266 103.508L274.312 107.727H270.82C270.086 107.727 269.461 107.828 268.945 108.031C268.445 108.234 268.039 108.516 267.727 108.875C267.43 109.219 267.211 109.609 267.07 110.047C266.945 110.484 266.883 110.945 266.883 111.43C266.883 111.898 266.992 112.32 267.211 112.695C267.445 113.055 267.758 113.336 268.148 113.539C268.539 113.742 268.977 113.844 269.461 113.844C270.336 113.844 271.078 113.68 271.688 113.352C272.312 113.008 272.789 112.594 273.117 112.109C273.445 111.625 273.609 111.172 273.609 110.75L275.344 113.984C275.031 114.609 274.672 115.242 274.266 115.883C273.875 116.523 273.383 117.117 272.789 117.664C272.211 118.195 271.5 118.633 270.656 118.977C269.812 119.305 268.789 119.469 267.586 119.469C266.023 119.469 264.586 119.148 263.273 118.508C261.977 117.867 260.938 116.977 260.156 115.836C259.375 114.68 258.984 113.352 258.984 111.852C258.984 110.539 259.219 109.367 259.688 108.336C260.172 107.305 260.898 106.43 261.867 105.711C262.836 104.992 264.07 104.445 265.57 104.07C267.07 103.695 268.836 103.508 270.867 103.508H274.266ZM296.344 113.375C297.078 113.375 297.703 113.242 298.219 112.977C298.75 112.695 299.148 112.305 299.414 111.805C299.695 111.289 299.828 110.672 299.812 109.953H307.242C307.258 111.859 306.789 113.531 305.836 114.969C304.898 116.391 303.617 117.5 301.992 118.297C300.383 119.078 298.562 119.469 296.531 119.469C294.547 119.469 292.812 119.148 291.328 118.508C289.844 117.852 288.602 116.945 287.602 115.789C286.617 114.617 285.875 113.25 285.375 111.688C284.891 110.125 284.648 108.43 284.648 106.602V106.062C284.648 104.234 284.891 102.539 285.375 100.977C285.875 99.3984 286.617 98.0312 287.602 96.875C288.602 95.7031 289.836 94.7969 291.305 94.1562C292.789 93.5 294.516 93.1719 296.484 93.1719C298.594 93.1719 300.453 93.5703 302.062 94.3672C303.688 95.1641 304.961 96.3203 305.883 97.8359C306.805 99.3516 307.258 101.188 307.242 103.344H299.812C299.828 102.578 299.711 101.891 299.461 101.281C299.211 100.672 298.82 100.188 298.289 99.8281C297.773 99.4531 297.109 99.2656 296.297 99.2656C295.484 99.2656 294.828 99.4453 294.328 99.8047C293.828 100.164 293.445 100.664 293.18 101.305C292.93 101.93 292.758 102.648 292.664 103.461C292.586 104.273 292.547 105.141 292.547 106.062V106.602C292.547 107.539 292.586 108.422 292.664 109.25C292.758 110.062 292.938 110.781 293.203 111.406C293.469 112.016 293.852 112.5 294.352 112.859C294.852 113.203 295.516 113.375 296.344 113.375ZM318.586 82.9766V119H310.688V82.9766H318.586ZM334.805 93.6406L323.789 106.555L318.023 112.32L314.578 107.305L319.383 101.047L325.336 93.6406H334.805ZM326.344 119L319.57 107.445L325.406 103.297L335.391 119H326.344Z" fill="black"/>
<path d="M1134 0H1348C1356.28 0 1363 6.71573 1363 15V148C1363 156.284 1356.28 163 1348 163H1134V0Z" fill="#FC943C"/>
<path fill-rule="evenodd" clip-rule="evenodd" d="M1218.75 53C1218.62 53 1218.49 53.0527 1218.4 53.1464C1218.3 53.2402 1218.25 53.3674 1218.25 53.5V109.5C1218.25 109.633 1218.3 109.76 1218.4 109.854C1218.49 109.947 1218.62 110 1218.75 110H1278.25C1278.38 110 1278.51 109.947 1278.6 109.854C1278.7 109.76 1278.75 109.633 1278.75 109.5V64C1278.75 63.8674 1278.7 63.7402 1278.6 63.6464C1278.51 63.5527 1278.38 63.5 1278.25 63.5H1248.5C1247.61 63.5 1246.77 63.1045 1246.2 62.4206L1238.34 53H1218.75ZM1214.15 48.9038C1215.37 47.6848 1217.03 47 1218.75 47H1239.75C1240.64 47 1241.48 47.3955 1242.05 48.0794L1249.91 57.5H1278.25C1279.97 57.5 1281.63 58.1848 1282.85 59.4038C1284.07 60.6228 1284.75 62.2761 1284.75 64V109.5C1284.75 111.224 1284.07 112.877 1282.85 114.096C1281.63 115.315 1279.97 116 1278.25 116H1218.75C1217.03 116 1215.37 115.315 1214.15 114.096C1212.93 112.877 1212.25 111.224 1212.25 109.5V53.5C1212.25 51.7761 1212.93 50.1228 1214.15 48.9038Z" fill="white"/>
<path fill-rule="evenodd" clip-rule="evenodd" d="M1243.97 75.5251C1245.34 76.892 1245.34 79.108 1243.97 80.4749L1237.7 86.75L1243.97 93.0251C1245.34 94.392 1245.34 96.608 1243.97 97.9749C1242.61 99.3417 1240.39 99.3417 1239.03 97.9749L1230.28 89.2249C1228.91 87.858 1228.91 85.642 1230.28 84.2751L1239.03 75.5251C1240.39 74.1583 1242.61 74.1583 1243.97 75.5251Z" fill="white"/>
<path fill-rule="evenodd" clip-rule="evenodd" d="M1252.28 97.9749C1250.91 96.608 1250.91 94.392 1252.28 93.0251L1258.55 86.75L1252.28 80.4749C1250.91 79.108 1250.91 76.892 1252.28 75.5251C1253.64 74.1583 1255.86 74.1583 1257.22 75.5251L1265.97 84.2751C1267.34 85.642 1267.34 87.858 1265.97 89.2249L1257.22 97.9749C1255.86 99.3417 1253.64 99.3417 1252.28 97.9749Z" fill="white"/>
</svg>
