<svg width="1363" height="163" viewBox="0 0 1363 163" fill="none" xmlns="http://www.w3.org/2000/svg">
<g clip-path="url(#clip0_151_334)">
<path d="M0 15C0 6.71573 6.71573 0 15 0H37V163H15C6.71573 163 0 156.284 0 148V15Z" fill="#424242"/>
<path d="M1134 0H37V163H1134V0Z" fill="#F0F0F0"/>
<path d="M101.906 53.9219L94.3945 51.2383V48.0859L104.602 52.375V54.6367L101.906 53.9219ZM94.3945 56.1719L101.918 53.4297L104.602 52.7852V55.0352L94.3945 59.3242V56.1719ZM124.348 58.2578V61H115.266V58.2578H124.348ZM116.414 43.9375V61H112.898V43.9375H116.414ZM123.164 50.8867V53.5586H115.266V50.8867H123.164ZM124.336 43.9375V46.6914H115.266V43.9375H124.336ZM131.191 58.5977C131.605 58.5977 131.973 58.5195 132.293 58.3633C132.613 58.1992 132.863 57.9727 133.043 57.6836C133.23 57.3867 133.328 57.0391 133.336 56.6406H136.512C136.504 57.5312 136.266 58.3242 135.797 59.0195C135.328 59.707 134.699 60.25 133.91 60.6484C133.121 61.0391 132.238 61.2344 131.262 61.2344C130.277 61.2344 129.418 61.0703 128.684 60.7422C127.957 60.4141 127.352 59.9609 126.867 59.3828C126.383 58.7969 126.02 58.1172 125.777 57.3438C125.535 56.5625 125.414 55.7266 125.414 54.8359V54.4961C125.414 53.5977 125.535 52.7617 125.777 51.9883C126.02 51.207 126.383 50.5273 126.867 49.9492C127.352 49.3633 127.957 48.9062 128.684 48.5781C129.41 48.25 130.262 48.0859 131.238 48.0859C132.277 48.0859 133.188 48.2852 133.969 48.6836C134.758 49.082 135.375 49.6523 135.82 50.3945C136.273 51.1289 136.504 52 136.512 53.0078H133.336C133.328 52.5859 133.238 52.2031 133.066 51.8594C132.902 51.5156 132.66 51.2422 132.34 51.0391C132.027 50.8281 131.641 50.7227 131.18 50.7227C130.688 50.7227 130.285 50.8281 129.973 51.0391C129.66 51.2422 129.418 51.5234 129.246 51.8828C129.074 52.2344 128.953 52.6367 128.883 53.0898C128.82 53.5352 128.789 54.0039 128.789 54.4961V54.8359C128.789 55.3281 128.82 55.8008 128.883 56.2539C128.945 56.707 129.062 57.1094 129.234 57.4609C129.414 57.8125 129.66 58.0898 129.973 58.293C130.285 58.4961 130.691 58.5977 131.191 58.5977ZM137.93 54.7891V54.543C137.93 53.6133 138.062 52.7578 138.328 51.9766C138.594 51.1875 138.98 50.5039 139.488 49.9258C139.996 49.3477 140.621 48.8984 141.363 48.5781C142.105 48.25 142.957 48.0859 143.918 48.0859C144.879 48.0859 145.734 48.25 146.484 48.5781C147.234 48.8984 147.863 49.3477 148.371 49.9258C148.887 50.5039 149.277 51.1875 149.543 51.9766C149.809 52.7578 149.941 53.6133 149.941 54.543V54.7891C149.941 55.7109 149.809 56.5664 149.543 57.3555C149.277 58.1367 148.887 58.8203 148.371 59.4062C147.863 59.9844 147.238 60.4336 146.496 60.7539C145.754 61.0742 144.902 61.2344 143.941 61.2344C142.98 61.2344 142.125 61.0742 141.375 60.7539C140.633 60.4336 140.004 59.9844 139.488 59.4062C138.98 58.8203 138.594 58.1367 138.328 57.3555C138.062 56.5664 137.93 55.7109 137.93 54.7891ZM141.305 54.543V54.7891C141.305 55.3203 141.352 55.8164 141.445 56.2773C141.539 56.7383 141.688 57.1445 141.891 57.4961C142.102 57.8398 142.375 58.1094 142.711 58.3047C143.047 58.5 143.457 58.5977 143.941 58.5977C144.41 58.5977 144.812 58.5 145.148 58.3047C145.484 58.1094 145.754 57.8398 145.957 57.4961C146.16 57.1445 146.309 56.7383 146.402 56.2773C146.504 55.8164 146.555 55.3203 146.555 54.7891V54.543C146.555 54.0273 146.504 53.543 146.402 53.0898C146.309 52.6289 146.156 52.2227 145.945 51.8711C145.742 51.5117 145.473 51.2305 145.137 51.0273C144.801 50.8242 144.395 50.7227 143.918 50.7227C143.441 50.7227 143.035 50.8242 142.699 51.0273C142.371 51.2305 142.102 51.5117 141.891 51.8711C141.688 52.2227 141.539 52.6289 141.445 53.0898C141.352 53.543 141.305 54.0273 141.305 54.543ZM161.109 56.5352C161.109 56.2305 161.062 55.957 160.969 55.7148C160.883 55.4648 160.719 55.2383 160.477 55.0352C160.234 54.8242 159.895 54.6172 159.457 54.4141C159.02 54.2109 158.453 54 157.758 53.7812C156.984 53.5312 156.25 53.25 155.555 52.9375C154.867 52.625 154.258 52.2617 153.727 51.8477C153.203 51.4258 152.789 50.9375 152.484 50.3828C152.188 49.8281 152.039 49.1836 152.039 48.4492C152.039 47.7383 152.195 47.0938 152.508 46.5156C152.82 45.9297 153.258 45.4297 153.82 45.0156C154.383 44.5938 155.047 44.2695 155.812 44.043C156.586 43.8164 157.434 43.7031 158.355 43.7031C159.613 43.7031 160.711 43.9297 161.648 44.3828C162.586 44.8359 163.312 45.457 163.828 46.2461C164.352 47.0352 164.613 47.9375 164.613 48.9531H161.121C161.121 48.4531 161.016 48.0156 160.805 47.6406C160.602 47.2578 160.289 46.957 159.867 46.7383C159.453 46.5195 158.93 46.4102 158.297 46.4102C157.688 46.4102 157.18 46.5039 156.773 46.6914C156.367 46.8711 156.062 47.1172 155.859 47.4297C155.656 47.7344 155.555 48.0781 155.555 48.4609C155.555 48.75 155.625 49.0117 155.766 49.2461C155.914 49.4805 156.133 49.6992 156.422 49.9023C156.711 50.1055 157.066 50.2969 157.488 50.4766C157.91 50.6562 158.398 50.832 158.953 51.0039C159.883 51.2852 160.699 51.6016 161.402 51.9531C162.113 52.3047 162.707 52.6992 163.184 53.1367C163.66 53.5742 164.02 54.0703 164.262 54.625C164.504 55.1797 164.625 55.8086 164.625 56.5117C164.625 57.2539 164.48 57.918 164.191 58.5039C163.902 59.0898 163.484 59.5859 162.938 59.9922C162.391 60.3984 161.738 60.707 160.98 60.918C160.223 61.1289 159.375 61.2344 158.438 61.2344C157.594 61.2344 156.762 61.125 155.941 60.9062C155.121 60.6797 154.375 60.3398 153.703 59.8867C153.039 59.4336 152.508 58.8555 152.109 58.1523C151.711 57.4492 151.512 56.6172 151.512 55.6562H155.039C155.039 56.1875 155.121 56.6367 155.285 57.0039C155.449 57.3711 155.68 57.668 155.977 57.8945C156.281 58.1211 156.641 58.2852 157.055 58.3867C157.477 58.4883 157.938 58.5391 158.438 58.5391C159.047 58.5391 159.547 58.4531 159.938 58.2812C160.336 58.1094 160.629 57.8711 160.816 57.5664C161.012 57.2617 161.109 56.918 161.109 56.5352ZM172.641 61.2344C171.656 61.2344 170.773 61.0781 169.992 60.7656C169.211 60.4453 168.547 60.0039 168 59.4414C167.461 58.8789 167.047 58.2266 166.758 57.4844C166.469 56.7344 166.324 55.9375 166.324 55.0938V54.625C166.324 53.6641 166.461 52.7852 166.734 51.9883C167.008 51.1914 167.398 50.5 167.906 49.9141C168.422 49.3281 169.047 48.8789 169.781 48.5664C170.516 48.2461 171.344 48.0859 172.266 48.0859C173.164 48.0859 173.961 48.2344 174.656 48.5312C175.352 48.8281 175.934 49.25 176.402 49.7969C176.879 50.3438 177.238 51 177.48 51.7656C177.723 52.5234 177.844 53.3672 177.844 54.2969V55.7031H167.766V53.4531H174.527V53.1953C174.527 52.7266 174.441 52.3086 174.27 51.9414C174.105 51.5664 173.855 51.2695 173.52 51.0508C173.184 50.832 172.754 50.7227 172.23 50.7227C171.785 50.7227 171.402 50.8203 171.082 51.0156C170.762 51.2109 170.5 51.4844 170.297 51.8359C170.102 52.1875 169.953 52.6016 169.852 53.0781C169.758 53.5469 169.711 54.0625 169.711 54.625V55.0938C169.711 55.6016 169.781 56.0703 169.922 56.5C170.07 56.9297 170.277 57.3008 170.543 57.6133C170.816 57.9258 171.145 58.168 171.527 58.3398C171.918 58.5117 172.359 58.5977 172.852 58.5977C173.461 58.5977 174.027 58.4805 174.551 58.2461C175.082 58.0039 175.539 57.6406 175.922 57.1562L177.562 58.9375C177.297 59.3203 176.934 59.6875 176.473 60.0391C176.02 60.3906 175.473 60.6797 174.832 60.9062C174.191 61.125 173.461 61.2344 172.641 61.2344ZM183.07 51.0273V61H179.695V48.3203H182.859L183.07 51.0273ZM182.578 54.2148H181.664C181.664 53.2773 181.785 52.4336 182.027 51.6836C182.27 50.9258 182.609 50.2812 183.047 49.75C183.484 49.2109 184.004 48.8008 184.605 48.5195C185.215 48.2305 185.895 48.0859 186.645 48.0859C187.238 48.0859 187.781 48.1719 188.273 48.3438C188.766 48.5156 189.188 48.7891 189.539 49.1641C189.898 49.5391 190.172 50.0352 190.359 50.6523C190.555 51.2695 190.652 52.0234 190.652 52.9141V61H187.254V52.9023C187.254 52.3398 187.176 51.9023 187.02 51.5898C186.863 51.2773 186.633 51.0586 186.328 50.9336C186.031 50.8008 185.664 50.7344 185.227 50.7344C184.773 50.7344 184.379 50.8242 184.043 51.0039C183.715 51.1836 183.441 51.4336 183.223 51.7539C183.012 52.0664 182.852 52.4336 182.742 52.8555C182.633 53.2773 182.578 53.7305 182.578 54.2148ZM200.074 57.4961C200.074 57.2539 200.004 57.0352 199.863 56.8398C199.723 56.6445 199.461 56.4648 199.078 56.3008C198.703 56.1289 198.16 55.9727 197.449 55.832C196.809 55.6914 196.211 55.5156 195.656 55.3047C195.109 55.0859 194.633 54.8242 194.227 54.5195C193.828 54.2148 193.516 53.8555 193.289 53.4414C193.062 53.0195 192.949 52.5391 192.949 52C192.949 51.4688 193.062 50.9688 193.289 50.5C193.523 50.0312 193.855 49.6172 194.285 49.2578C194.723 48.8906 195.254 48.6055 195.879 48.4023C196.512 48.1914 197.223 48.0859 198.012 48.0859C199.113 48.0859 200.059 48.2617 200.848 48.6133C201.645 48.9648 202.254 49.4492 202.676 50.0664C203.105 50.6758 203.32 51.3711 203.32 52.1523H199.945C199.945 51.8242 199.875 51.5312 199.734 51.2734C199.602 51.0078 199.391 50.8008 199.102 50.6523C198.82 50.4961 198.453 50.418 198 50.418C197.625 50.418 197.301 50.4844 197.027 50.6172C196.754 50.7422 196.543 50.9141 196.395 51.1328C196.254 51.3438 196.184 51.5781 196.184 51.8359C196.184 52.0312 196.223 52.207 196.301 52.3633C196.387 52.5117 196.523 52.6484 196.711 52.7734C196.898 52.8984 197.141 53.0156 197.438 53.125C197.742 53.2266 198.117 53.3203 198.562 53.4062C199.477 53.5938 200.293 53.8398 201.012 54.1445C201.73 54.4414 202.301 54.8477 202.723 55.3633C203.145 55.8711 203.355 56.5391 203.355 57.3672C203.355 57.9297 203.23 58.4453 202.98 58.9141C202.73 59.3828 202.371 59.793 201.902 60.1445C201.434 60.4883 200.871 60.7578 200.215 60.9531C199.566 61.1406 198.836 61.2344 198.023 61.2344C196.844 61.2344 195.844 61.0234 195.023 60.6016C194.211 60.1797 193.594 59.6445 193.172 58.9961C192.758 58.3398 192.551 57.668 192.551 56.9805H195.75C195.766 57.4414 195.883 57.8125 196.102 58.0938C196.328 58.375 196.613 58.5781 196.957 58.7031C197.309 58.8281 197.688 58.8906 198.094 58.8906C198.531 58.8906 198.895 58.832 199.184 58.7148C199.473 58.5898 199.691 58.4258 199.84 58.2227C199.996 58.0117 200.074 57.7695 200.074 57.4961ZM211.383 61.2344C210.398 61.2344 209.516 61.0781 208.734 60.7656C207.953 60.4453 207.289 60.0039 206.742 59.4414C206.203 58.8789 205.789 58.2266 205.5 57.4844C205.211 56.7344 205.066 55.9375 205.066 55.0938V54.625C205.066 53.6641 205.203 52.7852 205.477 51.9883C205.75 51.1914 206.141 50.5 206.648 49.9141C207.164 49.3281 207.789 48.8789 208.523 48.5664C209.258 48.2461 210.086 48.0859 211.008 48.0859C211.906 48.0859 212.703 48.2344 213.398 48.5312C214.094 48.8281 214.676 49.25 215.145 49.7969C215.621 50.3438 215.98 51 216.223 51.7656C216.465 52.5234 216.586 53.3672 216.586 54.2969V55.7031H206.508V53.4531H213.27V53.1953C213.27 52.7266 213.184 52.3086 213.012 51.9414C212.848 51.5664 212.598 51.2695 212.262 51.0508C211.926 50.832 211.496 50.7227 210.973 50.7227C210.527 50.7227 210.145 50.8203 209.824 51.0156C209.504 51.2109 209.242 51.4844 209.039 51.8359C208.844 52.1875 208.695 52.6016 208.594 53.0781C208.5 53.5469 208.453 54.0625 208.453 54.625V55.0938C208.453 55.6016 208.523 56.0703 208.664 56.5C208.812 56.9297 209.02 57.3008 209.285 57.6133C209.559 57.9258 209.887 58.168 210.27 58.3398C210.66 58.5117 211.102 58.5977 211.594 58.5977C212.203 58.5977 212.77 58.4805 213.293 58.2461C213.824 58.0039 214.281 57.6406 214.664 57.1562L216.305 58.9375C216.039 59.3203 215.676 59.6875 215.215 60.0391C214.762 60.3906 214.215 60.6797 213.574 60.9062C212.934 61.125 212.203 61.2344 211.383 61.2344Z" fill="#888888"/>
<path d="M118.594 98.422V104.75H101.086V98.422H118.594ZM103.828 84.8751V119H95.6016V84.8751H103.828ZM124.125 84.8751V119H115.922V84.8751H124.125ZM127.992 106.578V106.086C127.992 104.227 128.258 102.516 128.789 100.953C129.32 99.3751 130.102 98.0079 131.133 96.8517C132.164 95.6954 133.438 94.7969 134.953 94.1562C136.469 93.5001 138.219 93.172 140.203 93.172C142.203 93.172 143.961 93.5001 145.477 94.1562C147.008 94.7969 148.289 95.6954 149.32 96.8517C150.352 98.0079 151.133 99.3751 151.664 100.953C152.195 102.516 152.461 104.227 152.461 106.086V106.578C152.461 108.422 152.195 110.133 151.664 111.711C151.133 113.273 150.352 114.641 149.32 115.812C148.289 116.969 147.016 117.867 145.5 118.508C143.984 119.148 142.234 119.469 140.25 119.469C138.266 119.469 136.508 119.148 134.977 118.508C133.445 117.867 132.164 116.969 131.133 115.812C130.102 114.641 129.32 113.273 128.789 111.711C128.258 110.133 127.992 108.422 127.992 106.578ZM135.891 106.086V106.578C135.891 107.531 135.961 108.422 136.102 109.25C136.242 110.078 136.477 110.805 136.805 111.43C137.133 112.039 137.578 112.516 138.141 112.859C138.703 113.203 139.406 113.375 140.25 113.375C141.078 113.375 141.766 113.203 142.312 112.859C142.875 112.516 143.32 112.039 143.648 111.43C143.977 110.805 144.211 110.078 144.352 109.25C144.492 108.422 144.562 107.531 144.562 106.578V106.086C144.562 105.164 144.492 104.297 144.352 103.484C144.211 102.656 143.977 101.93 143.648 101.305C143.32 100.664 142.875 100.164 142.312 99.8048C141.75 99.4454 141.047 99.2657 140.203 99.2657C139.375 99.2657 138.68 99.4454 138.117 99.8048C137.57 100.164 137.133 100.664 136.805 101.305C136.477 101.93 136.242 102.656 136.102 103.484C135.961 104.297 135.891 105.164 135.891 106.086ZM163.688 111.453L168.375 93.6407H173.32L171.562 102.57L166.922 119H162.961L163.688 111.453ZM161.836 93.6407L164.742 111.312L165.07 119H160.266L154.266 93.6407H161.836ZM177.492 110.938L180.422 93.6407H187.992L182.039 119H177.234L177.492 110.938ZM173.883 93.6407L178.617 111.406L179.344 119H175.336L170.789 102.617L169.102 93.6407H173.883ZM218.297 84.8751V119H210.07V84.8751H218.297ZM228.562 84.8751V91.2267H200.039V84.8751H228.562ZM225.773 106.578V106.086C225.773 104.227 226.039 102.516 226.57 100.953C227.102 99.3751 227.883 98.0079 228.914 96.8517C229.945 95.6954 231.219 94.7969 232.734 94.1562C234.25 93.5001 236 93.172 237.984 93.172C239.984 93.172 241.742 93.5001 243.258 94.1562C244.789 94.7969 246.07 95.6954 247.102 96.8517C248.133 98.0079 248.914 99.3751 249.445 100.953C249.977 102.516 250.242 104.227 250.242 106.086V106.578C250.242 108.422 249.977 110.133 249.445 111.711C248.914 113.273 248.133 114.641 247.102 115.812C246.07 116.969 244.797 117.867 243.281 118.508C241.766 119.148 240.016 119.469 238.031 119.469C236.047 119.469 234.289 119.148 232.758 118.508C231.227 117.867 229.945 116.969 228.914 115.812C227.883 114.641 227.102 113.273 226.57 111.711C226.039 110.133 225.773 108.422 225.773 106.578ZM233.672 106.086V106.578C233.672 107.531 233.742 108.422 233.883 109.25C234.023 110.078 234.258 110.805 234.586 111.43C234.914 112.039 235.359 112.516 235.922 112.859C236.484 113.203 237.188 113.375 238.031 113.375C238.859 113.375 239.547 113.203 240.094 112.859C240.656 112.516 241.102 112.039 241.43 111.43C241.758 110.805 241.992 110.078 242.133 109.25C242.273 108.422 242.344 107.531 242.344 106.578V106.086C242.344 105.164 242.273 104.297 242.133 103.484C241.992 102.656 241.758 101.93 241.43 101.305C241.102 100.664 240.656 100.164 240.094 99.8048C239.531 99.4454 238.828 99.2657 237.984 99.2657C237.156 99.2657 236.461 99.4454 235.898 99.8048C235.352 100.164 234.914 100.664 234.586 101.305C234.258 101.93 234.023 102.656 233.883 103.484C233.742 104.297 233.672 105.164 233.672 106.086ZM266.086 84.8751H279.516C282.141 84.8751 284.422 85.2657 286.359 86.047C288.297 86.8282 289.789 87.9845 290.836 89.5157C291.898 91.047 292.43 92.9376 292.43 95.1876C292.43 97.1407 292.125 98.7735 291.516 100.086C290.906 101.398 290.055 102.484 288.961 103.344C287.883 104.188 286.625 104.883 285.188 105.43L282.492 106.953H271.219L271.172 100.602H279.516C280.562 100.602 281.43 100.414 282.117 100.039C282.805 99.6642 283.32 99.1329 283.664 98.4454C284.023 97.7423 284.203 96.9063 284.203 95.9376C284.203 94.9532 284.023 94.1094 283.664 93.4062C283.305 92.7031 282.773 92.1642 282.07 91.7892C281.383 91.4142 280.531 91.2267 279.516 91.2267H274.312V119H266.086V84.8751ZM284.766 119L277.219 103.906L285.938 103.859L293.578 118.648V119H284.766ZM311.836 112.836V93.6407H319.758V119H312.352L311.836 112.836ZM312.586 107.68L314.648 107.633C314.648 109.336 314.445 110.914 314.039 112.367C313.633 113.805 313.031 115.055 312.234 116.117C311.453 117.18 310.484 118.008 309.328 118.602C308.188 119.18 306.867 119.469 305.367 119.469C304.117 119.469 302.969 119.297 301.922 118.953C300.891 118.594 300 118.039 299.25 117.289C298.5 116.523 297.914 115.547 297.492 114.359C297.086 113.156 296.883 111.719 296.883 110.047V93.6407H304.781V110.094C304.781 110.656 304.852 111.141 304.992 111.547C305.133 111.953 305.336 112.297 305.602 112.578C305.867 112.844 306.195 113.047 306.586 113.188C306.992 113.312 307.453 113.375 307.969 113.375C309.156 113.375 310.086 113.125 310.758 112.625C311.43 112.125 311.898 111.445 312.164 110.586C312.445 109.727 312.586 108.758 312.586 107.68ZM331.875 99.0548V119H323.977V93.6407H331.383L331.875 99.0548ZM330.938 105.453L329.086 105.5C329.086 103.562 329.32 101.836 329.789 100.32C330.258 98.7892 330.922 97.4923 331.781 96.4298C332.641 95.3673 333.664 94.5626 334.852 94.0157C336.055 93.4532 337.391 93.172 338.859 93.172C340.031 93.172 341.102 93.3439 342.07 93.6876C343.055 94.0313 343.898 94.586 344.602 95.3517C345.32 96.1173 345.867 97.1329 346.242 98.3985C346.633 99.6485 346.828 101.195 346.828 103.039V119H338.883V103.016C338.883 102 338.742 101.227 338.461 100.695C338.18 100.148 337.773 99.7735 337.242 99.5704C336.711 99.3673 336.062 99.2657 335.297 99.2657C334.484 99.2657 333.797 99.422 333.234 99.7345C332.672 100.047 332.219 100.484 331.875 101.047C331.547 101.594 331.305 102.242 331.148 102.992C331.008 103.742 330.938 104.562 330.938 105.453ZM363.773 108.195H357.047C357.047 106.82 357.141 105.609 357.328 104.562C357.531 103.5 357.875 102.547 358.359 101.703C358.844 100.859 359.5 100.078 360.328 99.3595C361.062 98.7501 361.695 98.1642 362.227 97.6017C362.758 97.0392 363.164 96.4689 363.445 95.8907C363.727 95.3126 363.867 94.6954 363.867 94.0392C363.867 93.2267 363.75 92.5626 363.516 92.047C363.297 91.5313 362.961 91.1485 362.508 90.8985C362.07 90.6329 361.516 90.5001 360.844 90.5001C360.297 90.5001 359.781 90.6329 359.297 90.8985C358.828 91.1642 358.445 91.5782 358.148 92.1407C357.852 92.6876 357.688 93.4142 357.656 94.3204H349.711C349.758 91.9923 350.273 90.1017 351.258 88.6485C352.258 87.1798 353.586 86.1095 355.242 85.4376C356.914 84.7501 358.781 84.4062 360.844 84.4062C363.125 84.4062 365.086 84.7579 366.727 85.461C368.367 86.1642 369.625 87.211 370.5 88.6017C371.375 89.9767 371.812 91.672 371.812 93.6876C371.812 95.0313 371.555 96.2032 371.039 97.2032C370.539 98.1876 369.859 99.1095 369 99.9689C368.156 100.812 367.211 101.719 366.164 102.688C365.258 103.484 364.641 104.297 364.312 105.125C363.984 105.938 363.805 106.961 363.773 108.195ZM356.086 115.32C356.086 114.195 356.492 113.258 357.305 112.508C358.117 111.742 359.172 111.359 360.469 111.359C361.766 111.359 362.82 111.742 363.633 112.508C364.445 113.258 364.852 114.195 364.852 115.32C364.852 116.445 364.445 117.391 363.633 118.156C362.82 118.906 361.766 119.281 360.469 119.281C359.172 119.281 358.117 118.906 357.305 118.156C356.492 117.391 356.086 116.445 356.086 115.32Z" fill="black"/>
<path d="M1134 0H1348C1356.28 0 1363 6.71573 1363 15V148C1363 156.284 1356.28 163 1348 163H1134V0Z" fill="#527FF4"/>
<path d="M1260.62 78.8078C1263.81 78.8078 1266.93 79.7552 1269.59 81.5302C1272.25 83.3052 1274.32 85.8281 1275.54 88.7798C1276.76 91.7315 1277.08 94.9795 1276.46 98.1131C1275.84 101.247 1274.3 104.125 1272.04 106.384C1269.78 108.643 1266.9 110.182 1263.77 110.805C1260.63 111.428 1257.39 111.108 1254.43 109.886C1251.48 108.663 1248.96 106.593 1247.18 103.936C1245.41 101.28 1244.46 98.1565 1244.46 94.9616C1244.46 90.6774 1246.16 86.5686 1249.19 83.5392C1252.22 80.5097 1256.33 78.8078 1260.62 78.8078ZM1260.62 73.4232C1256.36 73.4232 1252.19 74.6864 1248.65 77.0531C1245.11 79.4198 1242.35 82.7836 1240.72 86.7192C1239.09 90.6549 1238.66 94.9855 1239.49 99.1636C1240.32 103.342 1242.37 107.179 1245.39 110.192C1248.4 113.204 1252.24 115.255 1256.41 116.086C1260.59 116.917 1264.92 116.491 1268.86 114.861C1272.79 113.23 1276.16 110.47 1278.52 106.928C1280.89 103.386 1282.15 99.2215 1282.15 94.9616C1282.15 89.2493 1279.88 83.7709 1275.85 79.7317C1271.81 75.6924 1266.33 73.4232 1260.62 73.4232Z" fill="white"/>
<path d="M1274.08 46.4999H1220.23C1218.8 46.4999 1217.43 47.0672 1216.42 48.0771C1215.41 49.0869 1214.85 50.4565 1214.85 51.8845V105.731C1214.85 107.159 1215.41 108.528 1216.42 109.538C1217.43 110.548 1218.8 111.115 1220.23 111.115H1231V105.731H1220.23V68.0383H1279.46V51.8845C1279.46 50.4565 1278.89 49.0869 1277.88 48.0771C1276.87 47.0672 1275.5 46.4999 1274.08 46.4999ZM1220.23 62.6537V51.8845H1274.08V62.6537H1220.23Z" fill="white"/>
<path d="M1255.23 86.8848V103.039L1268.69 94.9617L1255.23 86.8848Z" fill="white"/>
</g>
<defs>
<clipPath id="clip0_151_334">
<rect width="1363" height="163" fill="white"/>
</clipPath>
</defs>
</svg>
