<svg width="1363" height="163" viewBox="0 0 1363 163" fill="none" xmlns="http://www.w3.org/2000/svg">
<g clip-path="url(#clip0_151_303)">
<path d="M0 15C0 6.71573 6.71573 0 15 0H37V163H15C6.71573 163 0 156.284 0 148V15Z" fill="#424242"/>
<path d="M1134 0H37V163H1134V0Z" fill="#F0F0F0"/>
<path d="M101.906 53.9219L94.3945 51.2383V48.0859L104.602 52.375V54.6367L101.906 53.9219ZM94.3945 56.1719L101.918 53.4297L104.602 52.7852V55.0352L94.3945 59.3242V56.1719ZM124.348 58.2578V61H115.266V58.2578H124.348ZM116.414 43.9375V61H112.898V43.9375H116.414ZM123.164 50.8867V53.5586H115.266V50.8867H123.164ZM124.336 43.9375V46.6914H115.266V43.9375H124.336ZM131.191 58.5977C131.605 58.5977 131.973 58.5195 132.293 58.3633C132.613 58.1992 132.863 57.9727 133.043 57.6836C133.23 57.3867 133.328 57.0391 133.336 56.6406H136.512C136.504 57.5312 136.266 58.3242 135.797 59.0195C135.328 59.707 134.699 60.25 133.91 60.6484C133.121 61.0391 132.238 61.2344 131.262 61.2344C130.277 61.2344 129.418 61.0703 128.684 60.7422C127.957 60.4141 127.352 59.9609 126.867 59.3828C126.383 58.7969 126.02 58.1172 125.777 57.3438C125.535 56.5625 125.414 55.7266 125.414 54.8359V54.4961C125.414 53.5977 125.535 52.7617 125.777 51.9883C126.02 51.207 126.383 50.5273 126.867 49.9492C127.352 49.3633 127.957 48.9062 128.684 48.5781C129.41 48.25 130.262 48.0859 131.238 48.0859C132.277 48.0859 133.188 48.2852 133.969 48.6836C134.758 49.082 135.375 49.6523 135.82 50.3945C136.273 51.1289 136.504 52 136.512 53.0078H133.336C133.328 52.5859 133.238 52.2031 133.066 51.8594C132.902 51.5156 132.66 51.2422 132.34 51.0391C132.027 50.8281 131.641 50.7227 131.18 50.7227C130.688 50.7227 130.285 50.8281 129.973 51.0391C129.66 51.2422 129.418 51.5234 129.246 51.8828C129.074 52.2344 128.953 52.6367 128.883 53.0898C128.82 53.5352 128.789 54.0039 128.789 54.4961V54.8359C128.789 55.3281 128.82 55.8008 128.883 56.2539C128.945 56.707 129.062 57.1094 129.234 57.4609C129.414 57.8125 129.66 58.0898 129.973 58.293C130.285 58.4961 130.691 58.5977 131.191 58.5977ZM137.93 54.7891V54.543C137.93 53.6133 138.062 52.7578 138.328 51.9766C138.594 51.1875 138.98 50.5039 139.488 49.9258C139.996 49.3477 140.621 48.8984 141.363 48.5781C142.105 48.25 142.957 48.0859 143.918 48.0859C144.879 48.0859 145.734 48.25 146.484 48.5781C147.234 48.8984 147.863 49.3477 148.371 49.9258C148.887 50.5039 149.277 51.1875 149.543 51.9766C149.809 52.7578 149.941 53.6133 149.941 54.543V54.7891C149.941 55.7109 149.809 56.5664 149.543 57.3555C149.277 58.1367 148.887 58.8203 148.371 59.4062C147.863 59.9844 147.238 60.4336 146.496 60.7539C145.754 61.0742 144.902 61.2344 143.941 61.2344C142.98 61.2344 142.125 61.0742 141.375 60.7539C140.633 60.4336 140.004 59.9844 139.488 59.4062C138.98 58.8203 138.594 58.1367 138.328 57.3555C138.062 56.5664 137.93 55.7109 137.93 54.7891ZM141.305 54.543V54.7891C141.305 55.3203 141.352 55.8164 141.445 56.2773C141.539 56.7383 141.688 57.1445 141.891 57.4961C142.102 57.8398 142.375 58.1094 142.711 58.3047C143.047 58.5 143.457 58.5977 143.941 58.5977C144.41 58.5977 144.812 58.5 145.148 58.3047C145.484 58.1094 145.754 57.8398 145.957 57.4961C146.16 57.1445 146.309 56.7383 146.402 56.2773C146.504 55.8164 146.555 55.3203 146.555 54.7891V54.543C146.555 54.0273 146.504 53.543 146.402 53.0898C146.309 52.6289 146.156 52.2227 145.945 51.8711C145.742 51.5117 145.473 51.2305 145.137 51.0273C144.801 50.8242 144.395 50.7227 143.918 50.7227C143.441 50.7227 143.035 50.8242 142.699 51.0273C142.371 51.2305 142.102 51.5117 141.891 51.8711C141.688 52.2227 141.539 52.6289 141.445 53.0898C141.352 53.543 141.305 54.0273 141.305 54.543ZM161.109 56.5352C161.109 56.2305 161.062 55.957 160.969 55.7148C160.883 55.4648 160.719 55.2383 160.477 55.0352C160.234 54.8242 159.895 54.6172 159.457 54.4141C159.02 54.2109 158.453 54 157.758 53.7812C156.984 53.5312 156.25 53.25 155.555 52.9375C154.867 52.625 154.258 52.2617 153.727 51.8477C153.203 51.4258 152.789 50.9375 152.484 50.3828C152.188 49.8281 152.039 49.1836 152.039 48.4492C152.039 47.7383 152.195 47.0938 152.508 46.5156C152.82 45.9297 153.258 45.4297 153.82 45.0156C154.383 44.5938 155.047 44.2695 155.812 44.043C156.586 43.8164 157.434 43.7031 158.355 43.7031C159.613 43.7031 160.711 43.9297 161.648 44.3828C162.586 44.8359 163.312 45.457 163.828 46.2461C164.352 47.0352 164.613 47.9375 164.613 48.9531H161.121C161.121 48.4531 161.016 48.0156 160.805 47.6406C160.602 47.2578 160.289 46.957 159.867 46.7383C159.453 46.5195 158.93 46.4102 158.297 46.4102C157.688 46.4102 157.18 46.5039 156.773 46.6914C156.367 46.8711 156.062 47.1172 155.859 47.4297C155.656 47.7344 155.555 48.0781 155.555 48.4609C155.555 48.75 155.625 49.0117 155.766 49.2461C155.914 49.4805 156.133 49.6992 156.422 49.9023C156.711 50.1055 157.066 50.2969 157.488 50.4766C157.91 50.6562 158.398 50.832 158.953 51.0039C159.883 51.2852 160.699 51.6016 161.402 51.9531C162.113 52.3047 162.707 52.6992 163.184 53.1367C163.66 53.5742 164.02 54.0703 164.262 54.625C164.504 55.1797 164.625 55.8086 164.625 56.5117C164.625 57.2539 164.48 57.918 164.191 58.5039C163.902 59.0898 163.484 59.5859 162.938 59.9922C162.391 60.3984 161.738 60.707 160.98 60.918C160.223 61.1289 159.375 61.2344 158.438 61.2344C157.594 61.2344 156.762 61.125 155.941 60.9062C155.121 60.6797 154.375 60.3398 153.703 59.8867C153.039 59.4336 152.508 58.8555 152.109 58.1523C151.711 57.4492 151.512 56.6172 151.512 55.6562H155.039C155.039 56.1875 155.121 56.6367 155.285 57.0039C155.449 57.3711 155.68 57.668 155.977 57.8945C156.281 58.1211 156.641 58.2852 157.055 58.3867C157.477 58.4883 157.938 58.5391 158.438 58.5391C159.047 58.5391 159.547 58.4531 159.938 58.2812C160.336 58.1094 160.629 57.8711 160.816 57.5664C161.012 57.2617 161.109 56.918 161.109 56.5352ZM172.641 61.2344C171.656 61.2344 170.773 61.0781 169.992 60.7656C169.211 60.4453 168.547 60.0039 168 59.4414C167.461 58.8789 167.047 58.2266 166.758 57.4844C166.469 56.7344 166.324 55.9375 166.324 55.0938V54.625C166.324 53.6641 166.461 52.7852 166.734 51.9883C167.008 51.1914 167.398 50.5 167.906 49.9141C168.422 49.3281 169.047 48.8789 169.781 48.5664C170.516 48.2461 171.344 48.0859 172.266 48.0859C173.164 48.0859 173.961 48.2344 174.656 48.5312C175.352 48.8281 175.934 49.25 176.402 49.7969C176.879 50.3438 177.238 51 177.48 51.7656C177.723 52.5234 177.844 53.3672 177.844 54.2969V55.7031H167.766V53.4531H174.527V53.1953C174.527 52.7266 174.441 52.3086 174.27 51.9414C174.105 51.5664 173.855 51.2695 173.52 51.0508C173.184 50.832 172.754 50.7227 172.23 50.7227C171.785 50.7227 171.402 50.8203 171.082 51.0156C170.762 51.2109 170.5 51.4844 170.297 51.8359C170.102 52.1875 169.953 52.6016 169.852 53.0781C169.758 53.5469 169.711 54.0625 169.711 54.625V55.0938C169.711 55.6016 169.781 56.0703 169.922 56.5C170.07 56.9297 170.277 57.3008 170.543 57.6133C170.816 57.9258 171.145 58.168 171.527 58.3398C171.918 58.5117 172.359 58.5977 172.852 58.5977C173.461 58.5977 174.027 58.4805 174.551 58.2461C175.082 58.0039 175.539 57.6406 175.922 57.1562L177.562 58.9375C177.297 59.3203 176.934 59.6875 176.473 60.0391C176.02 60.3906 175.473 60.6797 174.832 60.9062C174.191 61.125 173.461 61.2344 172.641 61.2344ZM183.07 51.0273V61H179.695V48.3203H182.859L183.07 51.0273ZM182.578 54.2148H181.664C181.664 53.2773 181.785 52.4336 182.027 51.6836C182.27 50.9258 182.609 50.2812 183.047 49.75C183.484 49.2109 184.004 48.8008 184.605 48.5195C185.215 48.2305 185.895 48.0859 186.645 48.0859C187.238 48.0859 187.781 48.1719 188.273 48.3438C188.766 48.5156 189.188 48.7891 189.539 49.1641C189.898 49.5391 190.172 50.0352 190.359 50.6523C190.555 51.2695 190.652 52.0234 190.652 52.9141V61H187.254V52.9023C187.254 52.3398 187.176 51.9023 187.02 51.5898C186.863 51.2773 186.633 51.0586 186.328 50.9336C186.031 50.8008 185.664 50.7344 185.227 50.7344C184.773 50.7344 184.379 50.8242 184.043 51.0039C183.715 51.1836 183.441 51.4336 183.223 51.7539C183.012 52.0664 182.852 52.4336 182.742 52.8555C182.633 53.2773 182.578 53.7305 182.578 54.2148ZM200.074 57.4961C200.074 57.2539 200.004 57.0352 199.863 56.8398C199.723 56.6445 199.461 56.4648 199.078 56.3008C198.703 56.1289 198.16 55.9727 197.449 55.832C196.809 55.6914 196.211 55.5156 195.656 55.3047C195.109 55.0859 194.633 54.8242 194.227 54.5195C193.828 54.2148 193.516 53.8555 193.289 53.4414C193.062 53.0195 192.949 52.5391 192.949 52C192.949 51.4688 193.062 50.9688 193.289 50.5C193.523 50.0312 193.855 49.6172 194.285 49.2578C194.723 48.8906 195.254 48.6055 195.879 48.4023C196.512 48.1914 197.223 48.0859 198.012 48.0859C199.113 48.0859 200.059 48.2617 200.848 48.6133C201.645 48.9648 202.254 49.4492 202.676 50.0664C203.105 50.6758 203.32 51.3711 203.32 52.1523H199.945C199.945 51.8242 199.875 51.5312 199.734 51.2734C199.602 51.0078 199.391 50.8008 199.102 50.6523C198.82 50.4961 198.453 50.418 198 50.418C197.625 50.418 197.301 50.4844 197.027 50.6172C196.754 50.7422 196.543 50.9141 196.395 51.1328C196.254 51.3438 196.184 51.5781 196.184 51.8359C196.184 52.0312 196.223 52.207 196.301 52.3633C196.387 52.5117 196.523 52.6484 196.711 52.7734C196.898 52.8984 197.141 53.0156 197.438 53.125C197.742 53.2266 198.117 53.3203 198.562 53.4062C199.477 53.5938 200.293 53.8398 201.012 54.1445C201.73 54.4414 202.301 54.8477 202.723 55.3633C203.145 55.8711 203.355 56.5391 203.355 57.3672C203.355 57.9297 203.23 58.4453 202.98 58.9141C202.73 59.3828 202.371 59.793 201.902 60.1445C201.434 60.4883 200.871 60.7578 200.215 60.9531C199.566 61.1406 198.836 61.2344 198.023 61.2344C196.844 61.2344 195.844 61.0234 195.023 60.6016C194.211 60.1797 193.594 59.6445 193.172 58.9961C192.758 58.3398 192.551 57.668 192.551 56.9805H195.75C195.766 57.4414 195.883 57.8125 196.102 58.0938C196.328 58.375 196.613 58.5781 196.957 58.7031C197.309 58.8281 197.688 58.8906 198.094 58.8906C198.531 58.8906 198.895 58.832 199.184 58.7148C199.473 58.5898 199.691 58.4258 199.84 58.2227C199.996 58.0117 200.074 57.7695 200.074 57.4961ZM211.383 61.2344C210.398 61.2344 209.516 61.0781 208.734 60.7656C207.953 60.4453 207.289 60.0039 206.742 59.4414C206.203 58.8789 205.789 58.2266 205.5 57.4844C205.211 56.7344 205.066 55.9375 205.066 55.0938V54.625C205.066 53.6641 205.203 52.7852 205.477 51.9883C205.75 51.1914 206.141 50.5 206.648 49.9141C207.164 49.3281 207.789 48.8789 208.523 48.5664C209.258 48.2461 210.086 48.0859 211.008 48.0859C211.906 48.0859 212.703 48.2344 213.398 48.5312C214.094 48.8281 214.676 49.25 215.145 49.7969C215.621 50.3438 215.98 51 216.223 51.7656C216.465 52.5234 216.586 53.3672 216.586 54.2969V55.7031H206.508V53.4531H213.27V53.1953C213.27 52.7266 213.184 52.3086 213.012 51.9414C212.848 51.5664 212.598 51.2695 212.262 51.0508C211.926 50.832 211.496 50.7227 210.973 50.7227C210.527 50.7227 210.145 50.8203 209.824 51.0156C209.504 51.2109 209.242 51.4844 209.039 51.8359C208.844 52.1875 208.695 52.6016 208.594 53.0781C208.5 53.5469 208.453 54.0625 208.453 54.625V55.0938C208.453 55.6016 208.523 56.0703 208.664 56.5C208.812 56.9297 209.02 57.3008 209.285 57.6133C209.559 57.9258 209.887 58.168 210.27 58.3398C210.66 58.5117 211.102 58.5977 211.594 58.5977C212.203 58.5977 212.77 58.4805 213.293 58.2461C213.824 58.0039 214.281 57.6406 214.664 57.1562L216.305 58.9375C216.039 59.3203 215.676 59.6875 215.215 60.0391C214.762 60.3906 214.215 60.6797 213.574 60.9062C212.934 61.125 212.203 61.2344 211.383 61.2344Z" fill="#888888"/>
<path d="M109.219 107.422H100.734V101.07H109.219C110.375 101.07 111.312 100.875 112.031 100.484C112.75 100.094 113.273 99.5547 113.602 98.8672C113.945 98.1641 114.117 97.375 114.117 96.5C114.117 95.5625 113.945 94.6953 113.602 93.8984C113.273 93.1016 112.75 92.4609 112.031 91.9766C111.312 91.4766 110.375 91.2266 109.219 91.2266H103.828V119H95.6016V84.875H109.219C111.953 84.875 114.305 85.375 116.273 86.375C118.258 87.375 119.781 88.75 120.844 90.5C121.906 92.2344 122.438 94.2188 122.438 96.4531C122.438 98.6562 121.906 100.578 120.844 102.219C119.781 103.859 118.258 105.141 116.273 106.062C114.305 106.969 111.953 107.422 109.219 107.422ZM134.461 99.9219V119H126.562V93.6406H133.945L134.461 99.9219ZM141.961 93.4531L141.82 100.789C141.508 100.758 141.086 100.719 140.555 100.672C140.023 100.625 139.578 100.602 139.219 100.602C138.297 100.602 137.5 100.711 136.828 100.93C136.172 101.133 135.625 101.445 135.188 101.867C134.766 102.273 134.453 102.789 134.25 103.414C134.062 104.039 133.977 104.766 133.992 105.594L132.562 104.656C132.562 102.953 132.727 101.406 133.055 100.016C133.398 98.6094 133.883 97.3984 134.508 96.3828C135.133 95.3516 135.891 94.5625 136.781 94.0156C137.672 93.4531 138.672 93.1719 139.781 93.1719C140.172 93.1719 140.555 93.1953 140.93 93.2422C141.32 93.2891 141.664 93.3594 141.961 93.4531ZM142.852 106.578V106.086C142.852 104.227 143.117 102.516 143.648 100.953C144.18 99.375 144.961 98.0078 145.992 96.8516C147.023 95.6953 148.297 94.7969 149.812 94.1562C151.328 93.5 153.078 93.1719 155.062 93.1719C157.062 93.1719 158.82 93.5 160.336 94.1562C161.867 94.7969 163.148 95.6953 164.18 96.8516C165.211 98.0078 165.992 99.375 166.523 100.953C167.055 102.516 167.32 104.227 167.32 106.086V106.578C167.32 108.422 167.055 110.133 166.523 111.711C165.992 113.273 165.211 114.641 164.18 115.812C163.148 116.969 161.875 117.867 160.359 118.508C158.844 119.148 157.094 119.469 155.109 119.469C153.125 119.469 151.367 119.148 149.836 118.508C148.305 117.867 147.023 116.969 145.992 115.812C144.961 114.641 144.18 113.273 143.648 111.711C143.117 110.133 142.852 108.422 142.852 106.578ZM150.75 106.086V106.578C150.75 107.531 150.82 108.422 150.961 109.25C151.102 110.078 151.336 110.805 151.664 111.43C151.992 112.039 152.438 112.516 153 112.859C153.562 113.203 154.266 113.375 155.109 113.375C155.938 113.375 156.625 113.203 157.172 112.859C157.734 112.516 158.18 112.039 158.508 111.43C158.836 110.805 159.07 110.078 159.211 109.25C159.352 108.422 159.422 107.531 159.422 106.578V106.086C159.422 105.164 159.352 104.297 159.211 103.484C159.07 102.656 158.836 101.93 158.508 101.305C158.18 100.664 157.734 100.164 157.172 99.8047C156.609 99.4453 155.906 99.2656 155.062 99.2656C154.234 99.2656 153.539 99.4453 152.977 99.8047C152.43 100.164 151.992 100.664 151.664 101.305C151.336 101.93 151.102 102.656 150.961 103.484C150.82 104.297 150.75 105.164 150.75 106.086ZM184.195 93.6406V99.125H168.914V93.6406H184.195ZM172.125 87.3359H180.023V110.727C180.023 111.398 180.102 111.922 180.258 112.297C180.414 112.656 180.68 112.914 181.055 113.07C181.445 113.211 181.961 113.281 182.602 113.281C183.055 113.281 183.43 113.273 183.727 113.258C184.023 113.227 184.305 113.188 184.57 113.141V118.789C183.898 119.008 183.195 119.172 182.461 119.281C181.727 119.406 180.945 119.469 180.117 119.469C178.43 119.469 176.984 119.203 175.781 118.672C174.594 118.141 173.688 117.305 173.062 116.164C172.438 115.023 172.125 113.539 172.125 111.711V87.3359ZM185.648 106.578V106.086C185.648 104.227 185.914 102.516 186.445 100.953C186.977 99.375 187.758 98.0078 188.789 96.8516C189.82 95.6953 191.094 94.7969 192.609 94.1562C194.125 93.5 195.875 93.1719 197.859 93.1719C199.859 93.1719 201.617 93.5 203.133 94.1562C204.664 94.7969 205.945 95.6953 206.977 96.8516C208.008 98.0078 208.789 99.375 209.32 100.953C209.852 102.516 210.117 104.227 210.117 106.086V106.578C210.117 108.422 209.852 110.133 209.32 111.711C208.789 113.273 208.008 114.641 206.977 115.812C205.945 116.969 204.672 117.867 203.156 118.508C201.641 119.148 199.891 119.469 197.906 119.469C195.922 119.469 194.164 119.148 192.633 118.508C191.102 117.867 189.82 116.969 188.789 115.812C187.758 114.641 186.977 113.273 186.445 111.711C185.914 110.133 185.648 108.422 185.648 106.578ZM193.547 106.086V106.578C193.547 107.531 193.617 108.422 193.758 109.25C193.898 110.078 194.133 110.805 194.461 111.43C194.789 112.039 195.234 112.516 195.797 112.859C196.359 113.203 197.062 113.375 197.906 113.375C198.734 113.375 199.422 113.203 199.969 112.859C200.531 112.516 200.977 112.039 201.305 111.43C201.633 110.805 201.867 110.078 202.008 109.25C202.148 108.422 202.219 107.531 202.219 106.578V106.086C202.219 105.164 202.148 104.297 202.008 103.484C201.867 102.656 201.633 101.93 201.305 101.305C200.977 100.664 200.531 100.164 199.969 99.8047C199.406 99.4453 198.703 99.2656 197.859 99.2656C197.031 99.2656 196.336 99.4453 195.773 99.8047C195.227 100.164 194.789 100.664 194.461 101.305C194.133 101.93 193.898 102.656 193.758 103.484C193.617 104.297 193.547 105.164 193.547 106.086ZM226.992 93.6406V99.125H211.711V93.6406H226.992ZM214.922 87.3359H222.82V110.727C222.82 111.398 222.898 111.922 223.055 112.297C223.211 112.656 223.477 112.914 223.852 113.07C224.242 113.211 224.758 113.281 225.398 113.281C225.852 113.281 226.227 113.273 226.523 113.258C226.82 113.227 227.102 113.188 227.367 113.141V118.789C226.695 119.008 225.992 119.172 225.258 119.281C224.523 119.406 223.742 119.469 222.914 119.469C221.227 119.469 219.781 119.203 218.578 118.672C217.391 118.141 216.484 117.305 215.859 116.164C215.234 115.023 214.922 113.539 214.922 111.711V87.3359ZM237.914 116.023L244.477 93.6406H252.961L242.766 122.773C242.547 123.414 242.258 124.102 241.898 124.836C241.539 125.586 241.047 126.297 240.422 126.969C239.797 127.641 238.992 128.188 238.008 128.609C237.039 129.031 235.836 129.242 234.398 129.242C233.633 129.242 233.07 129.203 232.711 129.125C232.367 129.062 231.836 128.945 231.117 128.773V123.125C231.32 123.125 231.492 123.125 231.633 123.125C231.789 123.125 231.961 123.125 232.148 123.125C232.992 123.125 233.664 123.039 234.164 122.867C234.68 122.695 235.07 122.445 235.336 122.117C235.617 121.789 235.836 121.391 235.992 120.922L237.914 116.023ZM236.25 93.6406L241.242 111.383L242.109 119.75H236.812L227.789 93.6406H236.25ZM262.992 98.5156V128.75H255.094V93.6406H262.453L262.992 98.5156ZM278.555 106.016V106.508C278.555 108.352 278.344 110.062 277.922 111.641C277.5 113.219 276.875 114.594 276.047 115.766C275.219 116.938 274.188 117.852 272.953 118.508C271.734 119.148 270.32 119.469 268.711 119.469C267.195 119.469 265.891 119.133 264.797 118.461C263.703 117.789 262.789 116.859 262.055 115.672C261.32 114.484 260.727 113.125 260.273 111.594C259.82 110.062 259.461 108.445 259.195 106.742V106.109C259.461 104.281 259.82 102.586 260.273 101.023C260.727 99.4453 261.32 98.0703 262.055 96.8984C262.789 95.7266 263.695 94.8125 264.773 94.1562C265.867 93.5 267.172 93.1719 268.688 93.1719C270.297 93.1719 271.711 93.4766 272.93 94.0859C274.164 94.6953 275.195 95.5703 276.023 96.7109C276.867 97.8359 277.5 99.1875 277.922 100.766C278.344 102.344 278.555 104.094 278.555 106.016ZM270.656 106.508V106.016C270.656 105.031 270.586 104.133 270.445 103.32C270.305 102.492 270.078 101.773 269.766 101.164C269.469 100.555 269.07 100.086 268.57 99.7578C268.07 99.4297 267.453 99.2656 266.719 99.2656C265.875 99.2656 265.164 99.3984 264.586 99.6641C264.023 99.9141 263.57 100.305 263.227 100.836C262.898 101.352 262.664 102 262.523 102.781C262.398 103.547 262.344 104.445 262.359 105.477V107.398C262.328 108.586 262.445 109.633 262.711 110.539C262.977 111.43 263.438 112.125 264.094 112.625C264.75 113.125 265.641 113.375 266.766 113.375C267.516 113.375 268.141 113.203 268.641 112.859C269.141 112.5 269.539 112.008 269.836 111.383C270.133 110.742 270.344 110.008 270.469 109.18C270.594 108.352 270.656 107.461 270.656 106.508ZM290.414 93.6406V119H282.492V93.6406H290.414ZM282.023 87.1016C282.023 85.9766 282.43 85.0547 283.242 84.3359C284.055 83.6172 285.109 83.2578 286.406 83.2578C287.703 83.2578 288.758 83.6172 289.57 84.3359C290.383 85.0547 290.789 85.9766 290.789 87.1016C290.789 88.2266 290.383 89.1484 289.57 89.8672C288.758 90.5859 287.703 90.9453 286.406 90.9453C285.109 90.9453 284.055 90.5859 283.242 89.8672C282.43 89.1484 282.023 88.2266 282.023 87.1016ZM303.047 99.0547V119H295.148V93.6406H302.555L303.047 99.0547ZM302.109 105.453L300.258 105.5C300.258 103.562 300.492 101.836 300.961 100.32C301.43 98.7891 302.094 97.4922 302.953 96.4297C303.812 95.3672 304.836 94.5625 306.023 94.0156C307.227 93.4531 308.562 93.1719 310.031 93.1719C311.203 93.1719 312.273 93.3438 313.242 93.6875C314.227 94.0312 315.07 94.5859 315.773 95.3516C316.492 96.1172 317.039 97.1328 317.414 98.3984C317.805 99.6484 318 101.195 318 103.039V119H310.055V103.016C310.055 102 309.914 101.227 309.633 100.695C309.352 100.148 308.945 99.7734 308.414 99.5703C307.883 99.3672 307.234 99.2656 306.469 99.2656C305.656 99.2656 304.969 99.4219 304.406 99.7344C303.844 100.047 303.391 100.484 303.047 101.047C302.719 101.594 302.477 102.242 302.32 102.992C302.18 103.742 302.109 104.562 302.109 105.453ZM338.32 93.6406H345.492V118.016C345.492 120.359 344.953 122.344 343.875 123.969C342.797 125.609 341.289 126.852 339.352 127.695C337.43 128.555 335.18 128.984 332.602 128.984C331.461 128.984 330.297 128.836 329.109 128.539C327.922 128.258 326.812 127.836 325.781 127.273C324.75 126.711 323.883 126.016 323.18 125.188L326.484 120.547C327.125 121.266 327.93 121.875 328.898 122.375C329.867 122.891 331.008 123.148 332.32 123.148C333.461 123.148 334.414 122.945 335.18 122.539C335.961 122.133 336.555 121.539 336.961 120.758C337.367 119.992 337.57 119.062 337.57 117.969V99.6406L338.32 93.6406ZM321.469 106.625V106.133C321.469 104.211 321.703 102.461 322.172 100.883C322.656 99.2891 323.344 97.9219 324.234 96.7812C325.141 95.625 326.234 94.7344 327.516 94.1094C328.797 93.4844 330.242 93.1719 331.852 93.1719C333.586 93.1719 335.008 93.5078 336.117 94.1797C337.242 94.8359 338.141 95.7578 338.812 96.9453C339.5 98.1328 340.031 99.5234 340.406 101.117C340.797 102.695 341.125 104.398 341.391 106.227V106.812C341.125 108.531 340.758 110.156 340.289 111.688C339.836 113.203 339.242 114.547 338.508 115.719C337.773 116.891 336.852 117.812 335.742 118.484C334.648 119.141 333.336 119.469 331.805 119.469C330.211 119.469 328.773 119.148 327.492 118.508C326.227 117.867 325.141 116.969 324.234 115.812C323.344 114.656 322.656 113.297 322.172 111.734C321.703 110.172 321.469 108.469 321.469 106.625ZM329.367 106.133V106.625C329.367 107.578 329.453 108.461 329.625 109.273C329.812 110.086 330.094 110.805 330.469 111.43C330.844 112.039 331.305 112.516 331.852 112.859C332.414 113.203 333.07 113.375 333.82 113.375C334.961 113.375 335.883 113.133 336.586 112.648C337.289 112.164 337.797 111.477 338.109 110.586C338.422 109.695 338.555 108.648 338.508 107.445V105.594C338.539 104.562 338.469 103.656 338.297 102.875C338.125 102.078 337.852 101.414 337.477 100.883C337.117 100.352 336.633 99.9531 336.023 99.6875C335.43 99.4062 334.711 99.2656 333.867 99.2656C333.133 99.2656 332.484 99.4375 331.922 99.7812C331.359 100.125 330.891 100.609 330.516 101.234C330.141 101.844 329.852 102.57 329.648 103.414C329.461 104.242 329.367 105.148 329.367 106.133Z" fill="black"/>
<path d="M1134 0H1348C1356.28 0 1363 6.71573 1363 15V148C1363 156.284 1356.28 163 1348 163H1134V0Z" fill="#527FF4"/>
<path fill-rule="evenodd" clip-rule="evenodd" d="M1202.75 46.5018C1202.75 45.3973 1203.65 44.5018 1204.75 44.5018H1292.25C1293.35 44.5018 1294.25 45.3973 1294.25 46.5018V116.498C1294.25 117.603 1293.35 118.498 1292.25 118.498H1204.75C1203.65 118.498 1202.75 117.603 1202.75 116.498V46.5018ZM1206.75 48.5018V52.9963H1290.25V48.5018H1206.75ZM1290.25 56.9963H1235.19V114.498H1290.25V56.9963ZM1231.19 114.498V56.9963H1206.75V114.498H1231.19Z" fill="white"/>
<path fill-rule="evenodd" clip-rule="evenodd" d="M1209.72 62.3022C1209.72 61.1976 1210.62 60.3022 1211.72 60.3022H1225.72C1226.83 60.3022 1227.72 61.1976 1227.72 62.3022V81.6974C1227.72 82.802 1226.83 83.6974 1225.72 83.6974H1211.72C1210.62 83.6974 1209.72 82.802 1209.72 81.6974V62.3022ZM1213.72 64.3022V79.6974H1223.72V64.3022H1213.72ZM1239.33 63.1982C1239.33 62.0936 1240.22 61.1982 1241.33 61.1982H1284.25C1285.36 61.1982 1286.25 62.0936 1286.25 63.1982V109.407C1286.25 110.511 1285.36 111.407 1284.25 111.407H1241.33C1240.22 111.407 1239.33 110.511 1239.33 109.407V63.1982ZM1243.33 65.1982V107.407H1282.25V65.1982H1243.33ZM1209.56 93.4381C1209.56 92.3336 1210.46 91.4381 1211.56 91.4381H1220.48C1221.59 91.4381 1222.48 92.3336 1222.48 93.4381C1222.48 94.5427 1221.59 95.4381 1220.48 95.4381H1211.56C1210.46 95.4381 1209.56 94.5427 1209.56 93.4381ZM1209.56 100.438C1209.56 99.3335 1210.46 98.4381 1211.56 98.4381H1226.1C1227.21 98.4381 1228.1 99.3335 1228.1 100.438C1228.1 101.543 1227.21 102.438 1226.1 102.438H1211.56C1210.46 102.438 1209.56 101.543 1209.56 100.438ZM1209.56 107.438C1209.56 106.334 1210.46 105.438 1211.56 105.438H1220.48C1221.59 105.438 1222.48 106.334 1222.48 107.438C1222.48 108.543 1221.59 109.438 1220.48 109.438H1211.56C1210.46 109.438 1209.56 108.543 1209.56 107.438Z" fill="white"/>
</g>
<defs>
<clipPath id="clip0_151_303">
<rect width="1363" height="163" fill="white"/>
</clipPath>
</defs>
</svg>
