<svg width="1363" height="163" viewBox="0 0 1363 163" fill="none" xmlns="http://www.w3.org/2000/svg">
<path d="M0 15C0 6.71573 6.71573 0 15 0H37V163H15C6.71573 163 0 156.284 0 148V15Z" fill="#424242"/>
<rect width="1097" height="163" transform="translate(37)" fill="#F0F0F0"/>
<path d="M101.906 53.9219L94.3945 51.2383V48.0859L104.602 52.375V54.6367L101.906 53.9219ZM94.3945 56.1719L101.918 53.4297L104.602 52.7852V55.0352L94.3945 59.3242V56.1719ZM124.348 58.2578V61H115.266V58.2578H124.348ZM116.414 43.9375V61H112.898V43.9375H116.414ZM123.164 50.8867V53.5586H115.266V50.8867H123.164ZM124.336 43.9375V46.6914H115.266V43.9375H124.336ZM131.191 58.5977C131.605 58.5977 131.973 58.5195 132.293 58.3633C132.613 58.1992 132.863 57.9727 133.043 57.6836C133.23 57.3867 133.328 57.0391 133.336 56.6406H136.512C136.504 57.5312 136.266 58.3242 135.797 59.0195C135.328 59.707 134.699 60.25 133.91 60.6484C133.121 61.0391 132.238 61.2344 131.262 61.2344C130.277 61.2344 129.418 61.0703 128.684 60.7422C127.957 60.4141 127.352 59.9609 126.867 59.3828C126.383 58.7969 126.02 58.1172 125.777 57.3438C125.535 56.5625 125.414 55.7266 125.414 54.8359V54.4961C125.414 53.5977 125.535 52.7617 125.777 51.9883C126.02 51.207 126.383 50.5273 126.867 49.9492C127.352 49.3633 127.957 48.9062 128.684 48.5781C129.41 48.25 130.262 48.0859 131.238 48.0859C132.277 48.0859 133.188 48.2852 133.969 48.6836C134.758 49.082 135.375 49.6523 135.82 50.3945C136.273 51.1289 136.504 52 136.512 53.0078H133.336C133.328 52.5859 133.238 52.2031 133.066 51.8594C132.902 51.5156 132.66 51.2422 132.34 51.0391C132.027 50.8281 131.641 50.7227 131.18 50.7227C130.688 50.7227 130.285 50.8281 129.973 51.0391C129.66 51.2422 129.418 51.5234 129.246 51.8828C129.074 52.2344 128.953 52.6367 128.883 53.0898C128.82 53.5352 128.789 54.0039 128.789 54.4961V54.8359C128.789 55.3281 128.82 55.8008 128.883 56.2539C128.945 56.707 129.062 57.1094 129.234 57.4609C129.414 57.8125 129.66 58.0898 129.973 58.293C130.285 58.4961 130.691 58.5977 131.191 58.5977ZM137.93 54.7891V54.543C137.93 53.6133 138.062 52.7578 138.328 51.9766C138.594 51.1875 138.98 50.5039 139.488 49.9258C139.996 49.3477 140.621 48.8984 141.363 48.5781C142.105 48.25 142.957 48.0859 143.918 48.0859C144.879 48.0859 145.734 48.25 146.484 48.5781C147.234 48.8984 147.863 49.3477 148.371 49.9258C148.887 50.5039 149.277 51.1875 149.543 51.9766C149.809 52.7578 149.941 53.6133 149.941 54.543V54.7891C149.941 55.7109 149.809 56.5664 149.543 57.3555C149.277 58.1367 148.887 58.8203 148.371 59.4062C147.863 59.9844 147.238 60.4336 146.496 60.7539C145.754 61.0742 144.902 61.2344 143.941 61.2344C142.98 61.2344 142.125 61.0742 141.375 60.7539C140.633 60.4336 140.004 59.9844 139.488 59.4062C138.98 58.8203 138.594 58.1367 138.328 57.3555C138.062 56.5664 137.93 55.7109 137.93 54.7891ZM141.305 54.543V54.7891C141.305 55.3203 141.352 55.8164 141.445 56.2773C141.539 56.7383 141.688 57.1445 141.891 57.4961C142.102 57.8398 142.375 58.1094 142.711 58.3047C143.047 58.5 143.457 58.5977 143.941 58.5977C144.41 58.5977 144.812 58.5 145.148 58.3047C145.484 58.1094 145.754 57.8398 145.957 57.4961C146.16 57.1445 146.309 56.7383 146.402 56.2773C146.504 55.8164 146.555 55.3203 146.555 54.7891V54.543C146.555 54.0273 146.504 53.543 146.402 53.0898C146.309 52.6289 146.156 52.2227 145.945 51.8711C145.742 51.5117 145.473 51.2305 145.137 51.0273C144.801 50.8242 144.395 50.7227 143.918 50.7227C143.441 50.7227 143.035 50.8242 142.699 51.0273C142.371 51.2305 142.102 51.5117 141.891 51.8711C141.688 52.2227 141.539 52.6289 141.445 53.0898C141.352 53.543 141.305 54.0273 141.305 54.543ZM161.109 56.5352C161.109 56.2305 161.062 55.957 160.969 55.7148C160.883 55.4648 160.719 55.2383 160.477 55.0352C160.234 54.8242 159.895 54.6172 159.457 54.4141C159.02 54.2109 158.453 54 157.758 53.7812C156.984 53.5312 156.25 53.25 155.555 52.9375C154.867 52.625 154.258 52.2617 153.727 51.8477C153.203 51.4258 152.789 50.9375 152.484 50.3828C152.188 49.8281 152.039 49.1836 152.039 48.4492C152.039 47.7383 152.195 47.0938 152.508 46.5156C152.82 45.9297 153.258 45.4297 153.82 45.0156C154.383 44.5938 155.047 44.2695 155.812 44.043C156.586 43.8164 157.434 43.7031 158.355 43.7031C159.613 43.7031 160.711 43.9297 161.648 44.3828C162.586 44.8359 163.312 45.457 163.828 46.2461C164.352 47.0352 164.613 47.9375 164.613 48.9531H161.121C161.121 48.4531 161.016 48.0156 160.805 47.6406C160.602 47.2578 160.289 46.957 159.867 46.7383C159.453 46.5195 158.93 46.4102 158.297 46.4102C157.688 46.4102 157.18 46.5039 156.773 46.6914C156.367 46.8711 156.062 47.1172 155.859 47.4297C155.656 47.7344 155.555 48.0781 155.555 48.4609C155.555 48.75 155.625 49.0117 155.766 49.2461C155.914 49.4805 156.133 49.6992 156.422 49.9023C156.711 50.1055 157.066 50.2969 157.488 50.4766C157.91 50.6562 158.398 50.832 158.953 51.0039C159.883 51.2852 160.699 51.6016 161.402 51.9531C162.113 52.3047 162.707 52.6992 163.184 53.1367C163.66 53.5742 164.02 54.0703 164.262 54.625C164.504 55.1797 164.625 55.8086 164.625 56.5117C164.625 57.2539 164.48 57.918 164.191 58.5039C163.902 59.0898 163.484 59.5859 162.938 59.9922C162.391 60.3984 161.738 60.707 160.98 60.918C160.223 61.1289 159.375 61.2344 158.438 61.2344C157.594 61.2344 156.762 61.125 155.941 60.9062C155.121 60.6797 154.375 60.3398 153.703 59.8867C153.039 59.4336 152.508 58.8555 152.109 58.1523C151.711 57.4492 151.512 56.6172 151.512 55.6562H155.039C155.039 56.1875 155.121 56.6367 155.285 57.0039C155.449 57.3711 155.68 57.668 155.977 57.8945C156.281 58.1211 156.641 58.2852 157.055 58.3867C157.477 58.4883 157.938 58.5391 158.438 58.5391C159.047 58.5391 159.547 58.4531 159.938 58.2812C160.336 58.1094 160.629 57.8711 160.816 57.5664C161.012 57.2617 161.109 56.918 161.109 56.5352ZM172.641 61.2344C171.656 61.2344 170.773 61.0781 169.992 60.7656C169.211 60.4453 168.547 60.0039 168 59.4414C167.461 58.8789 167.047 58.2266 166.758 57.4844C166.469 56.7344 166.324 55.9375 166.324 55.0938V54.625C166.324 53.6641 166.461 52.7852 166.734 51.9883C167.008 51.1914 167.398 50.5 167.906 49.9141C168.422 49.3281 169.047 48.8789 169.781 48.5664C170.516 48.2461 171.344 48.0859 172.266 48.0859C173.164 48.0859 173.961 48.2344 174.656 48.5312C175.352 48.8281 175.934 49.25 176.402 49.7969C176.879 50.3438 177.238 51 177.48 51.7656C177.723 52.5234 177.844 53.3672 177.844 54.2969V55.7031H167.766V53.4531H174.527V53.1953C174.527 52.7266 174.441 52.3086 174.27 51.9414C174.105 51.5664 173.855 51.2695 173.52 51.0508C173.184 50.832 172.754 50.7227 172.23 50.7227C171.785 50.7227 171.402 50.8203 171.082 51.0156C170.762 51.2109 170.5 51.4844 170.297 51.8359C170.102 52.1875 169.953 52.6016 169.852 53.0781C169.758 53.5469 169.711 54.0625 169.711 54.625V55.0938C169.711 55.6016 169.781 56.0703 169.922 56.5C170.07 56.9297 170.277 57.3008 170.543 57.6133C170.816 57.9258 171.145 58.168 171.527 58.3398C171.918 58.5117 172.359 58.5977 172.852 58.5977C173.461 58.5977 174.027 58.4805 174.551 58.2461C175.082 58.0039 175.539 57.6406 175.922 57.1562L177.562 58.9375C177.297 59.3203 176.934 59.6875 176.473 60.0391C176.02 60.3906 175.473 60.6797 174.832 60.9062C174.191 61.125 173.461 61.2344 172.641 61.2344ZM183.07 51.0273V61H179.695V48.3203H182.859L183.07 51.0273ZM182.578 54.2148H181.664C181.664 53.2773 181.785 52.4336 182.027 51.6836C182.27 50.9258 182.609 50.2812 183.047 49.75C183.484 49.2109 184.004 48.8008 184.605 48.5195C185.215 48.2305 185.895 48.0859 186.645 48.0859C187.238 48.0859 187.781 48.1719 188.273 48.3438C188.766 48.5156 189.188 48.7891 189.539 49.1641C189.898 49.5391 190.172 50.0352 190.359 50.6523C190.555 51.2695 190.652 52.0234 190.652 52.9141V61H187.254V52.9023C187.254 52.3398 187.176 51.9023 187.02 51.5898C186.863 51.2773 186.633 51.0586 186.328 50.9336C186.031 50.8008 185.664 50.7344 185.227 50.7344C184.773 50.7344 184.379 50.8242 184.043 51.0039C183.715 51.1836 183.441 51.4336 183.223 51.7539C183.012 52.0664 182.852 52.4336 182.742 52.8555C182.633 53.2773 182.578 53.7305 182.578 54.2148ZM200.074 57.4961C200.074 57.2539 200.004 57.0352 199.863 56.8398C199.723 56.6445 199.461 56.4648 199.078 56.3008C198.703 56.1289 198.16 55.9727 197.449 55.832C196.809 55.6914 196.211 55.5156 195.656 55.3047C195.109 55.0859 194.633 54.8242 194.227 54.5195C193.828 54.2148 193.516 53.8555 193.289 53.4414C193.062 53.0195 192.949 52.5391 192.949 52C192.949 51.4688 193.062 50.9688 193.289 50.5C193.523 50.0312 193.855 49.6172 194.285 49.2578C194.723 48.8906 195.254 48.6055 195.879 48.4023C196.512 48.1914 197.223 48.0859 198.012 48.0859C199.113 48.0859 200.059 48.2617 200.848 48.6133C201.645 48.9648 202.254 49.4492 202.676 50.0664C203.105 50.6758 203.32 51.3711 203.32 52.1523H199.945C199.945 51.8242 199.875 51.5312 199.734 51.2734C199.602 51.0078 199.391 50.8008 199.102 50.6523C198.82 50.4961 198.453 50.418 198 50.418C197.625 50.418 197.301 50.4844 197.027 50.6172C196.754 50.7422 196.543 50.9141 196.395 51.1328C196.254 51.3438 196.184 51.5781 196.184 51.8359C196.184 52.0312 196.223 52.207 196.301 52.3633C196.387 52.5117 196.523 52.6484 196.711 52.7734C196.898 52.8984 197.141 53.0156 197.438 53.125C197.742 53.2266 198.117 53.3203 198.562 53.4062C199.477 53.5938 200.293 53.8398 201.012 54.1445C201.73 54.4414 202.301 54.8477 202.723 55.3633C203.145 55.8711 203.355 56.5391 203.355 57.3672C203.355 57.9297 203.23 58.4453 202.98 58.9141C202.73 59.3828 202.371 59.793 201.902 60.1445C201.434 60.4883 200.871 60.7578 200.215 60.9531C199.566 61.1406 198.836 61.2344 198.023 61.2344C196.844 61.2344 195.844 61.0234 195.023 60.6016C194.211 60.1797 193.594 59.6445 193.172 58.9961C192.758 58.3398 192.551 57.668 192.551 56.9805H195.75C195.766 57.4414 195.883 57.8125 196.102 58.0938C196.328 58.375 196.613 58.5781 196.957 58.7031C197.309 58.8281 197.688 58.8906 198.094 58.8906C198.531 58.8906 198.895 58.832 199.184 58.7148C199.473 58.5898 199.691 58.4258 199.84 58.2227C199.996 58.0117 200.074 57.7695 200.074 57.4961ZM211.383 61.2344C210.398 61.2344 209.516 61.0781 208.734 60.7656C207.953 60.4453 207.289 60.0039 206.742 59.4414C206.203 58.8789 205.789 58.2266 205.5 57.4844C205.211 56.7344 205.066 55.9375 205.066 55.0938V54.625C205.066 53.6641 205.203 52.7852 205.477 51.9883C205.75 51.1914 206.141 50.5 206.648 49.9141C207.164 49.3281 207.789 48.8789 208.523 48.5664C209.258 48.2461 210.086 48.0859 211.008 48.0859C211.906 48.0859 212.703 48.2344 213.398 48.5312C214.094 48.8281 214.676 49.25 215.145 49.7969C215.621 50.3438 215.98 51 216.223 51.7656C216.465 52.5234 216.586 53.3672 216.586 54.2969V55.7031H206.508V53.4531H213.27V53.1953C213.27 52.7266 213.184 52.3086 213.012 51.9414C212.848 51.5664 212.598 51.2695 212.262 51.0508C211.926 50.832 211.496 50.7227 210.973 50.7227C210.527 50.7227 210.145 50.8203 209.824 51.0156C209.504 51.2109 209.242 51.4844 209.039 51.8359C208.844 52.1875 208.695 52.6016 208.594 53.0781C208.5 53.5469 208.453 54.0625 208.453 54.625V55.0938C208.453 55.6016 208.523 56.0703 208.664 56.5C208.812 56.9297 209.02 57.3008 209.285 57.6133C209.559 57.9258 209.887 58.168 210.27 58.3398C210.66 58.5117 211.102 58.5977 211.594 58.5977C212.203 58.5977 212.77 58.4805 213.293 58.2461C213.824 58.0039 214.281 57.6406 214.664 57.1562L216.305 58.9375C216.039 59.3203 215.676 59.6875 215.215 60.0391C214.762 60.3906 214.215 60.6797 213.574 60.9062C212.934 61.125 212.203 61.2344 211.383 61.2344Z" fill="#888888"/>
<path d="M104.344 84.875V119H96.1406V84.875H104.344ZM117.727 99.0078V119H109.828V93.6406H117.234L117.727 99.0078ZM116.766 105.453L114.961 105.5C114.961 103.719 115.172 102.078 115.594 100.578C116.016 99.0781 116.641 97.7734 117.469 96.6641C118.297 95.5547 119.312 94.6953 120.516 94.0859C121.734 93.4766 123.141 93.1719 124.734 93.1719C125.844 93.1719 126.852 93.3438 127.758 93.6875C128.664 94.0156 129.445 94.5391 130.102 95.2578C130.758 95.9609 131.258 96.8828 131.602 98.0234C131.961 99.1484 132.141 100.5 132.141 102.078V119H124.242V103.086C124.242 102.008 124.117 101.195 123.867 100.648C123.633 100.102 123.289 99.7344 122.836 99.5469C122.383 99.3594 121.828 99.2656 121.172 99.2656C120.484 99.2656 119.867 99.4219 119.32 99.7344C118.773 100.047 118.305 100.484 117.914 101.047C117.539 101.594 117.25 102.242 117.047 102.992C116.859 103.742 116.766 104.562 116.766 105.453ZM131.25 105.453L129.047 105.5C129.047 103.719 129.242 102.078 129.633 100.578C130.039 99.0781 130.641 97.7734 131.438 96.6641C132.25 95.5547 133.258 94.6953 134.461 94.0859C135.664 93.4766 137.062 93.1719 138.656 93.1719C139.812 93.1719 140.875 93.3438 141.844 93.6875C142.812 94.0312 143.648 94.5859 144.352 95.3516C145.055 96.1172 145.602 97.1328 145.992 98.3984C146.383 99.6484 146.578 101.195 146.578 103.039V119H138.656V103.039C138.656 101.992 138.531 101.203 138.281 100.672C138.047 100.125 137.703 99.7578 137.25 99.5703C136.797 99.3672 136.258 99.2656 135.633 99.2656C134.883 99.2656 134.234 99.4219 133.688 99.7344C133.141 100.047 132.68 100.484 132.305 101.047C131.945 101.594 131.68 102.242 131.508 102.992C131.336 103.742 131.25 104.562 131.25 105.453ZM159.07 98.5156V128.75H151.172V93.6406H158.531L159.07 98.5156ZM174.633 106.016V106.508C174.633 108.352 174.422 110.062 174 111.641C173.578 113.219 172.953 114.594 172.125 115.766C171.297 116.938 170.266 117.852 169.031 118.508C167.812 119.148 166.398 119.469 164.789 119.469C163.273 119.469 161.969 119.133 160.875 118.461C159.781 117.789 158.867 116.859 158.133 115.672C157.398 114.484 156.805 113.125 156.352 111.594C155.898 110.062 155.539 108.445 155.273 106.742V106.109C155.539 104.281 155.898 102.586 156.352 101.023C156.805 99.4453 157.398 98.0703 158.133 96.8984C158.867 95.7266 159.773 94.8125 160.852 94.1562C161.945 93.5 163.25 93.1719 164.766 93.1719C166.375 93.1719 167.789 93.4766 169.008 94.0859C170.242 94.6953 171.273 95.5703 172.102 96.7109C172.945 97.8359 173.578 99.1875 174 100.766C174.422 102.344 174.633 104.094 174.633 106.016ZM166.734 106.508V106.016C166.734 105.031 166.664 104.133 166.523 103.32C166.383 102.492 166.156 101.773 165.844 101.164C165.547 100.555 165.148 100.086 164.648 99.7578C164.148 99.4297 163.531 99.2656 162.797 99.2656C161.953 99.2656 161.242 99.3984 160.664 99.6641C160.102 99.9141 159.648 100.305 159.305 100.836C158.977 101.352 158.742 102 158.602 102.781C158.477 103.547 158.422 104.445 158.438 105.477V107.398C158.406 108.586 158.523 109.633 158.789 110.539C159.055 111.43 159.516 112.125 160.172 112.625C160.828 113.125 161.719 113.375 162.844 113.375C163.594 113.375 164.219 113.203 164.719 112.859C165.219 112.5 165.617 112.008 165.914 111.383C166.211 110.742 166.422 110.008 166.547 109.18C166.672 108.352 166.734 107.461 166.734 106.508ZM186.492 83V119H178.57V83H186.492ZM203.648 119.469C201.586 119.469 199.742 119.148 198.117 118.508C196.492 117.852 195.117 116.953 193.992 115.812C192.883 114.672 192.031 113.359 191.438 111.875C190.859 110.391 190.57 108.82 190.57 107.164V106.273C190.57 104.414 190.828 102.695 191.344 101.117C191.859 99.5234 192.625 98.1328 193.641 96.9453C194.656 95.7578 195.93 94.8359 197.461 94.1797C198.992 93.5078 200.773 93.1719 202.805 93.1719C204.602 93.1719 206.211 93.4609 207.633 94.0391C209.055 94.6172 210.258 95.4453 211.242 96.5234C212.242 97.6016 213 98.9062 213.516 100.438C214.047 101.969 214.312 103.688 214.312 105.594V108.805H193.594V103.859H206.602V103.25C206.617 102.406 206.469 101.688 206.156 101.094C205.859 100.5 205.422 100.047 204.844 99.7344C204.266 99.4219 203.562 99.2656 202.734 99.2656C201.875 99.2656 201.164 99.4531 200.602 99.8281C200.055 100.203 199.625 100.719 199.312 101.375C199.016 102.016 198.805 102.758 198.68 103.602C198.555 104.445 198.492 105.336 198.492 106.273V107.164C198.492 108.102 198.617 108.953 198.867 109.719C199.133 110.484 199.508 111.141 199.992 111.688C200.492 112.219 201.086 112.633 201.773 112.93C202.477 113.227 203.273 113.375 204.164 113.375C205.242 113.375 206.305 113.172 207.352 112.766C208.398 112.359 209.297 111.688 210.047 110.75L213.633 115.016C213.117 115.75 212.383 116.461 211.43 117.148C210.492 117.836 209.367 118.398 208.055 118.836C206.742 119.258 205.273 119.469 203.648 119.469ZM225.492 99.0078V119H217.594V93.6406H225L225.492 99.0078ZM224.531 105.453L222.727 105.5C222.727 103.719 222.938 102.078 223.359 100.578C223.781 99.0781 224.406 97.7734 225.234 96.6641C226.062 95.5547 227.078 94.6953 228.281 94.0859C229.5 93.4766 230.906 93.1719 232.5 93.1719C233.609 93.1719 234.617 93.3438 235.523 93.6875C236.43 94.0156 237.211 94.5391 237.867 95.2578C238.523 95.9609 239.023 96.8828 239.367 98.0234C239.727 99.1484 239.906 100.5 239.906 102.078V119H232.008V103.086C232.008 102.008 231.883 101.195 231.633 100.648C231.398 100.102 231.055 99.7344 230.602 99.5469C230.148 99.3594 229.594 99.2656 228.938 99.2656C228.25 99.2656 227.633 99.4219 227.086 99.7344C226.539 100.047 226.07 100.484 225.68 101.047C225.305 101.594 225.016 102.242 224.812 102.992C224.625 103.742 224.531 104.562 224.531 105.453ZM239.016 105.453L236.812 105.5C236.812 103.719 237.008 102.078 237.398 100.578C237.805 99.0781 238.406 97.7734 239.203 96.6641C240.016 95.5547 241.023 94.6953 242.227 94.0859C243.43 93.4766 244.828 93.1719 246.422 93.1719C247.578 93.1719 248.641 93.3438 249.609 93.6875C250.578 94.0312 251.414 94.5859 252.117 95.3516C252.82 96.1172 253.367 97.1328 253.758 98.3984C254.148 99.6484 254.344 101.195 254.344 103.039V119H246.422V103.039C246.422 101.992 246.297 101.203 246.047 100.672C245.812 100.125 245.469 99.7578 245.016 99.5703C244.562 99.3672 244.023 99.2656 243.398 99.2656C242.648 99.2656 242 99.4219 241.453 99.7344C240.906 100.047 240.445 100.484 240.07 101.047C239.711 101.594 239.445 102.242 239.273 102.992C239.102 103.742 239.016 104.562 239.016 105.453ZM271.148 119.469C269.086 119.469 267.242 119.148 265.617 118.508C263.992 117.852 262.617 116.953 261.492 115.812C260.383 114.672 259.531 113.359 258.938 111.875C258.359 110.391 258.07 108.82 258.07 107.164V106.273C258.07 104.414 258.328 102.695 258.844 101.117C259.359 99.5234 260.125 98.1328 261.141 96.9453C262.156 95.7578 263.43 94.8359 264.961 94.1797C266.492 93.5078 268.273 93.1719 270.305 93.1719C272.102 93.1719 273.711 93.4609 275.133 94.0391C276.555 94.6172 277.758 95.4453 278.742 96.5234C279.742 97.6016 280.5 98.9062 281.016 100.438C281.547 101.969 281.812 103.688 281.812 105.594V108.805H261.094V103.859H274.102V103.25C274.117 102.406 273.969 101.688 273.656 101.094C273.359 100.5 272.922 100.047 272.344 99.7344C271.766 99.4219 271.062 99.2656 270.234 99.2656C269.375 99.2656 268.664 99.4531 268.102 99.8281C267.555 100.203 267.125 100.719 266.812 101.375C266.516 102.016 266.305 102.758 266.18 103.602C266.055 104.445 265.992 105.336 265.992 106.273V107.164C265.992 108.102 266.117 108.953 266.367 109.719C266.633 110.484 267.008 111.141 267.492 111.688C267.992 112.219 268.586 112.633 269.273 112.93C269.977 113.227 270.773 113.375 271.664 113.375C272.742 113.375 273.805 113.172 274.852 112.766C275.898 112.359 276.797 111.688 277.547 110.75L281.133 115.016C280.617 115.75 279.883 116.461 278.93 117.148C277.992 117.836 276.867 118.398 275.555 118.836C274.242 119.258 272.773 119.469 271.148 119.469ZM292.781 99.0547V119H284.883V93.6406H292.289L292.781 99.0547ZM291.844 105.453L289.992 105.5C289.992 103.562 290.227 101.836 290.695 100.32C291.164 98.7891 291.828 97.4922 292.688 96.4297C293.547 95.3672 294.57 94.5625 295.758 94.0156C296.961 93.4531 298.297 93.1719 299.766 93.1719C300.938 93.1719 302.008 93.3438 302.977 93.6875C303.961 94.0312 304.805 94.5859 305.508 95.3516C306.227 96.1172 306.773 97.1328 307.148 98.3984C307.539 99.6484 307.734 101.195 307.734 103.039V119H299.789V103.016C299.789 102 299.648 101.227 299.367 100.695C299.086 100.148 298.68 99.7734 298.148 99.5703C297.617 99.3672 296.969 99.2656 296.203 99.2656C295.391 99.2656 294.703 99.4219 294.141 99.7344C293.578 100.047 293.125 100.484 292.781 101.047C292.453 101.594 292.211 102.242 292.055 102.992C291.914 103.742 291.844 104.562 291.844 105.453ZM325.477 93.6406V99.125H310.195V93.6406H325.477ZM313.406 87.3359H321.305V110.727C321.305 111.398 321.383 111.922 321.539 112.297C321.695 112.656 321.961 112.914 322.336 113.07C322.727 113.211 323.242 113.281 323.883 113.281C324.336 113.281 324.711 113.273 325.008 113.258C325.305 113.227 325.586 113.188 325.852 113.141V118.789C325.18 119.008 324.477 119.172 323.742 119.281C323.008 119.406 322.227 119.469 321.398 119.469C319.711 119.469 318.266 119.203 317.062 118.672C315.875 118.141 314.969 117.305 314.344 116.164C313.719 115.023 313.406 113.539 313.406 111.711V87.3359ZM341.789 112.625V102.172C341.789 101.453 341.688 100.836 341.484 100.32C341.281 99.8047 340.961 99.4062 340.523 99.125C340.086 98.8281 339.5 98.6797 338.766 98.6797C338.172 98.6797 337.664 98.7812 337.242 98.9844C336.82 99.1875 336.5 99.4922 336.281 99.8984C336.062 100.305 335.953 100.82 335.953 101.445H328.055C328.055 100.273 328.312 99.1875 328.828 98.1875C329.359 97.1719 330.109 96.2891 331.078 95.5391C332.062 94.7891 333.234 94.2109 334.594 93.8047C335.969 93.3828 337.5 93.1719 339.188 93.1719C341.203 93.1719 343 93.5078 344.578 94.1797C346.172 94.8516 347.43 95.8594 348.352 97.2031C349.273 98.5312 349.734 100.203 349.734 102.219V112.602C349.734 114.258 349.828 115.516 350.016 116.375C350.203 117.219 350.469 117.961 350.812 118.602V119H342.891C342.516 118.219 342.234 117.266 342.047 116.141C341.875 115 341.789 113.828 341.789 112.625ZM342.75 103.508L342.797 107.727H339.305C338.57 107.727 337.945 107.828 337.43 108.031C336.93 108.234 336.523 108.516 336.211 108.875C335.914 109.219 335.695 109.609 335.555 110.047C335.43 110.484 335.367 110.945 335.367 111.43C335.367 111.898 335.477 112.32 335.695 112.695C335.93 113.055 336.242 113.336 336.633 113.539C337.023 113.742 337.461 113.844 337.945 113.844C338.82 113.844 339.562 113.68 340.172 113.352C340.797 113.008 341.273 112.594 341.602 112.109C341.93 111.625 342.094 111.172 342.094 110.75L343.828 113.984C343.516 114.609 343.156 115.242 342.75 115.883C342.359 116.523 341.867 117.117 341.273 117.664C340.695 118.195 339.984 118.633 339.141 118.977C338.297 119.305 337.273 119.469 336.07 119.469C334.508 119.469 333.07 119.148 331.758 118.508C330.461 117.867 329.422 116.977 328.641 115.836C327.859 114.68 327.469 113.352 327.469 111.852C327.469 110.539 327.703 109.367 328.172 108.336C328.656 107.305 329.383 106.43 330.352 105.711C331.32 104.992 332.555 104.445 334.055 104.07C335.555 103.695 337.32 103.508 339.352 103.508H342.75ZM367.477 93.6406V99.125H352.195V93.6406H367.477ZM355.406 87.3359H363.305V110.727C363.305 111.398 363.383 111.922 363.539 112.297C363.695 112.656 363.961 112.914 364.336 113.07C364.727 113.211 365.242 113.281 365.883 113.281C366.336 113.281 366.711 113.273 367.008 113.258C367.305 113.227 367.586 113.188 367.852 113.141V118.789C367.18 119.008 366.477 119.172 365.742 119.281C365.008 119.406 364.227 119.469 363.398 119.469C361.711 119.469 360.266 119.203 359.062 118.672C357.875 118.141 356.969 117.305 356.344 116.164C355.719 115.023 355.406 113.539 355.406 111.711V87.3359ZM378.961 93.6406V119H371.039V93.6406H378.961ZM370.57 87.1016C370.57 85.9766 370.977 85.0547 371.789 84.3359C372.602 83.6172 373.656 83.2578 374.953 83.2578C376.25 83.2578 377.305 83.6172 378.117 84.3359C378.93 85.0547 379.336 85.9766 379.336 87.1016C379.336 88.2266 378.93 89.1484 378.117 89.8672C377.305 90.5859 376.25 90.9453 374.953 90.9453C373.656 90.9453 372.602 90.5859 371.789 89.8672C370.977 89.1484 370.57 88.2266 370.57 87.1016ZM382.852 106.578V106.086C382.852 104.227 383.117 102.516 383.648 100.953C384.18 99.375 384.961 98.0078 385.992 96.8516C387.023 95.6953 388.297 94.7969 389.812 94.1562C391.328 93.5 393.078 93.1719 395.062 93.1719C397.062 93.1719 398.82 93.5 400.336 94.1562C401.867 94.7969 403.148 95.6953 404.18 96.8516C405.211 98.0078 405.992 99.375 406.523 100.953C407.055 102.516 407.32 104.227 407.32 106.086V106.578C407.32 108.422 407.055 110.133 406.523 111.711C405.992 113.273 405.211 114.641 404.18 115.812C403.148 116.969 401.875 117.867 400.359 118.508C398.844 119.148 397.094 119.469 395.109 119.469C393.125 119.469 391.367 119.148 389.836 118.508C388.305 117.867 387.023 116.969 385.992 115.812C384.961 114.641 384.18 113.273 383.648 111.711C383.117 110.133 382.852 108.422 382.852 106.578ZM390.75 106.086V106.578C390.75 107.531 390.82 108.422 390.961 109.25C391.102 110.078 391.336 110.805 391.664 111.43C391.992 112.039 392.438 112.516 393 112.859C393.562 113.203 394.266 113.375 395.109 113.375C395.938 113.375 396.625 113.203 397.172 112.859C397.734 112.516 398.18 112.039 398.508 111.43C398.836 110.805 399.07 110.078 399.211 109.25C399.352 108.422 399.422 107.531 399.422 106.578V106.086C399.422 105.164 399.352 104.297 399.211 103.484C399.07 102.656 398.836 101.93 398.508 101.305C398.18 100.664 397.734 100.164 397.172 99.8047C396.609 99.4453 395.906 99.2656 395.062 99.2656C394.234 99.2656 393.539 99.4453 392.977 99.8047C392.43 100.164 391.992 100.664 391.664 101.305C391.336 101.93 391.102 102.656 390.961 103.484C390.82 104.297 390.75 105.164 390.75 106.086ZM418.594 99.0547V119H410.695V93.6406H418.102L418.594 99.0547ZM417.656 105.453L415.805 105.5C415.805 103.562 416.039 101.836 416.508 100.32C416.977 98.7891 417.641 97.4922 418.5 96.4297C419.359 95.3672 420.383 94.5625 421.57 94.0156C422.773 93.4531 424.109 93.1719 425.578 93.1719C426.75 93.1719 427.82 93.3438 428.789 93.6875C429.773 94.0312 430.617 94.5859 431.32 95.3516C432.039 96.1172 432.586 97.1328 432.961 98.3984C433.352 99.6484 433.547 101.195 433.547 103.039V119H425.602V103.016C425.602 102 425.461 101.227 425.18 100.695C424.898 100.148 424.492 99.7734 423.961 99.5703C423.43 99.3672 422.781 99.2656 422.016 99.2656C421.203 99.2656 420.516 99.4219 419.953 99.7344C419.391 100.047 418.938 100.484 418.594 101.047C418.266 101.594 418.023 102.242 417.867 102.992C417.727 103.742 417.656 104.562 417.656 105.453Z" fill="black"/>
<path d="M1134 0H1348C1356.28 0 1363 6.71573 1363 15V148C1363 156.284 1356.28 163 1348 163H1134V0Z" fill="#FC943C"/>
<path d="M1281 46.5H1216L1213.5 49V114L1216 116.5H1281L1283.5 114V49L1281 46.5ZM1278.5 111.5H1233.5V101.5H1245C1246.5 104.5 1250 106.5 1253.5 106.5C1259 106.5 1263.5 102 1263.5 96.5C1263.5 91 1259 86.5 1253.5 86.5C1248 86.5 1243.5 91 1243.5 96.5H1228.5V111.5H1218.5V51.5H1228.5V63C1225.5 64.5 1223.5 68 1223.5 71.5C1223.5 77 1228 81.5 1233.5 81.5C1239 81.5 1243.5 77 1243.5 71.5H1253.5C1253.5 77 1258 81.5 1263.5 81.5C1269 81.5 1273.5 77 1273.5 71.5C1273.5 66 1269 61.5 1263.5 61.5C1260 61.5 1256.5 63.5 1255 66.5H1242C1240.5 63.5 1237 61.5 1233.5 61.5V51.5H1278.5V111.5ZM1248.5 96.5C1248.5 93.5 1250.5 91.5 1253.5 91.5C1256.5 91.5 1258.5 93.5 1258.5 96.5C1258.5 99.5 1256.5 101.5 1253.5 101.5C1250.5 101.5 1248.5 99.5 1248.5 96.5ZM1233.5 66.5C1236.5 66.5 1238.5 68.5 1238.5 71.5C1238.5 74.5 1236.5 76.5 1233.5 76.5C1230.5 76.5 1228.5 74.5 1228.5 71.5C1228.5 68.5 1230.5 66.5 1233.5 66.5ZM1263.5 66.5C1266.5 66.5 1268.5 68.5 1268.5 71.5C1268.5 74.5 1266.5 76.5 1263.5 76.5C1260.5 76.5 1258.5 74.5 1258.5 71.5C1258.5 68.5 1260.5 66.5 1263.5 66.5Z" fill="white"/>
</svg>
