<svg width="1363" height="163" viewBox="0 0 1363 163" fill="none" xmlns="http://www.w3.org/2000/svg">
<g clip-path="url(#clip0_151_318)">
<path d="M0 15C0 6.71573 6.71573 0 15 0H37V163H15C6.71573 163 0 156.284 0 148V15Z" fill="#424242"/>
<path d="M1134 0H37V163H1134V0Z" fill="#F0F0F0"/>
<path d="M101.906 53.9219L94.3945 51.2383V48.0859L104.602 52.375V54.6367L101.906 53.9219ZM94.3945 56.1719L101.918 53.4297L104.602 52.7852V55.0352L94.3945 59.3242V56.1719ZM124.348 58.2578V61H115.266V58.2578H124.348ZM116.414 43.9375V61H112.898V43.9375H116.414ZM123.164 50.8867V53.5586H115.266V50.8867H123.164ZM124.336 43.9375V46.6914H115.266V43.9375H124.336ZM131.191 58.5977C131.605 58.5977 131.973 58.5195 132.293 58.3633C132.613 58.1992 132.863 57.9727 133.043 57.6836C133.23 57.3867 133.328 57.0391 133.336 56.6406H136.512C136.504 57.5312 136.266 58.3242 135.797 59.0195C135.328 59.707 134.699 60.25 133.91 60.6484C133.121 61.0391 132.238 61.2344 131.262 61.2344C130.277 61.2344 129.418 61.0703 128.684 60.7422C127.957 60.4141 127.352 59.9609 126.867 59.3828C126.383 58.7969 126.02 58.1172 125.777 57.3438C125.535 56.5625 125.414 55.7266 125.414 54.8359V54.4961C125.414 53.5977 125.535 52.7617 125.777 51.9883C126.02 51.207 126.383 50.5273 126.867 49.9492C127.352 49.3633 127.957 48.9062 128.684 48.5781C129.41 48.25 130.262 48.0859 131.238 48.0859C132.277 48.0859 133.188 48.2852 133.969 48.6836C134.758 49.082 135.375 49.6523 135.82 50.3945C136.273 51.1289 136.504 52 136.512 53.0078H133.336C133.328 52.5859 133.238 52.2031 133.066 51.8594C132.902 51.5156 132.66 51.2422 132.34 51.0391C132.027 50.8281 131.641 50.7227 131.18 50.7227C130.688 50.7227 130.285 50.8281 129.973 51.0391C129.66 51.2422 129.418 51.5234 129.246 51.8828C129.074 52.2344 128.953 52.6367 128.883 53.0898C128.82 53.5352 128.789 54.0039 128.789 54.4961V54.8359C128.789 55.3281 128.82 55.8008 128.883 56.2539C128.945 56.707 129.062 57.1094 129.234 57.4609C129.414 57.8125 129.66 58.0898 129.973 58.293C130.285 58.4961 130.691 58.5977 131.191 58.5977ZM137.93 54.7891V54.543C137.93 53.6133 138.062 52.7578 138.328 51.9766C138.594 51.1875 138.98 50.5039 139.488 49.9258C139.996 49.3477 140.621 48.8984 141.363 48.5781C142.105 48.25 142.957 48.0859 143.918 48.0859C144.879 48.0859 145.734 48.25 146.484 48.5781C147.234 48.8984 147.863 49.3477 148.371 49.9258C148.887 50.5039 149.277 51.1875 149.543 51.9766C149.809 52.7578 149.941 53.6133 149.941 54.543V54.7891C149.941 55.7109 149.809 56.5664 149.543 57.3555C149.277 58.1367 148.887 58.8203 148.371 59.4062C147.863 59.9844 147.238 60.4336 146.496 60.7539C145.754 61.0742 144.902 61.2344 143.941 61.2344C142.98 61.2344 142.125 61.0742 141.375 60.7539C140.633 60.4336 140.004 59.9844 139.488 59.4062C138.98 58.8203 138.594 58.1367 138.328 57.3555C138.062 56.5664 137.93 55.7109 137.93 54.7891ZM141.305 54.543V54.7891C141.305 55.3203 141.352 55.8164 141.445 56.2773C141.539 56.7383 141.688 57.1445 141.891 57.4961C142.102 57.8398 142.375 58.1094 142.711 58.3047C143.047 58.5 143.457 58.5977 143.941 58.5977C144.41 58.5977 144.812 58.5 145.148 58.3047C145.484 58.1094 145.754 57.8398 145.957 57.4961C146.16 57.1445 146.309 56.7383 146.402 56.2773C146.504 55.8164 146.555 55.3203 146.555 54.7891V54.543C146.555 54.0273 146.504 53.543 146.402 53.0898C146.309 52.6289 146.156 52.2227 145.945 51.8711C145.742 51.5117 145.473 51.2305 145.137 51.0273C144.801 50.8242 144.395 50.7227 143.918 50.7227C143.441 50.7227 143.035 50.8242 142.699 51.0273C142.371 51.2305 142.102 51.5117 141.891 51.8711C141.688 52.2227 141.539 52.6289 141.445 53.0898C141.352 53.543 141.305 54.0273 141.305 54.543ZM161.109 56.5352C161.109 56.2305 161.062 55.957 160.969 55.7148C160.883 55.4648 160.719 55.2383 160.477 55.0352C160.234 54.8242 159.895 54.6172 159.457 54.4141C159.02 54.2109 158.453 54 157.758 53.7812C156.984 53.5312 156.25 53.25 155.555 52.9375C154.867 52.625 154.258 52.2617 153.727 51.8477C153.203 51.4258 152.789 50.9375 152.484 50.3828C152.188 49.8281 152.039 49.1836 152.039 48.4492C152.039 47.7383 152.195 47.0938 152.508 46.5156C152.82 45.9297 153.258 45.4297 153.82 45.0156C154.383 44.5938 155.047 44.2695 155.812 44.043C156.586 43.8164 157.434 43.7031 158.355 43.7031C159.613 43.7031 160.711 43.9297 161.648 44.3828C162.586 44.8359 163.312 45.457 163.828 46.2461C164.352 47.0352 164.613 47.9375 164.613 48.9531H161.121C161.121 48.4531 161.016 48.0156 160.805 47.6406C160.602 47.2578 160.289 46.957 159.867 46.7383C159.453 46.5195 158.93 46.4102 158.297 46.4102C157.688 46.4102 157.18 46.5039 156.773 46.6914C156.367 46.8711 156.062 47.1172 155.859 47.4297C155.656 47.7344 155.555 48.0781 155.555 48.4609C155.555 48.75 155.625 49.0117 155.766 49.2461C155.914 49.4805 156.133 49.6992 156.422 49.9023C156.711 50.1055 157.066 50.2969 157.488 50.4766C157.91 50.6562 158.398 50.832 158.953 51.0039C159.883 51.2852 160.699 51.6016 161.402 51.9531C162.113 52.3047 162.707 52.6992 163.184 53.1367C163.66 53.5742 164.02 54.0703 164.262 54.625C164.504 55.1797 164.625 55.8086 164.625 56.5117C164.625 57.2539 164.48 57.918 164.191 58.5039C163.902 59.0898 163.484 59.5859 162.938 59.9922C162.391 60.3984 161.738 60.707 160.98 60.918C160.223 61.1289 159.375 61.2344 158.438 61.2344C157.594 61.2344 156.762 61.125 155.941 60.9062C155.121 60.6797 154.375 60.3398 153.703 59.8867C153.039 59.4336 152.508 58.8555 152.109 58.1523C151.711 57.4492 151.512 56.6172 151.512 55.6562H155.039C155.039 56.1875 155.121 56.6367 155.285 57.0039C155.449 57.3711 155.68 57.668 155.977 57.8945C156.281 58.1211 156.641 58.2852 157.055 58.3867C157.477 58.4883 157.938 58.5391 158.438 58.5391C159.047 58.5391 159.547 58.4531 159.938 58.2812C160.336 58.1094 160.629 57.8711 160.816 57.5664C161.012 57.2617 161.109 56.918 161.109 56.5352ZM172.641 61.2344C171.656 61.2344 170.773 61.0781 169.992 60.7656C169.211 60.4453 168.547 60.0039 168 59.4414C167.461 58.8789 167.047 58.2266 166.758 57.4844C166.469 56.7344 166.324 55.9375 166.324 55.0938V54.625C166.324 53.6641 166.461 52.7852 166.734 51.9883C167.008 51.1914 167.398 50.5 167.906 49.9141C168.422 49.3281 169.047 48.8789 169.781 48.5664C170.516 48.2461 171.344 48.0859 172.266 48.0859C173.164 48.0859 173.961 48.2344 174.656 48.5312C175.352 48.8281 175.934 49.25 176.402 49.7969C176.879 50.3438 177.238 51 177.48 51.7656C177.723 52.5234 177.844 53.3672 177.844 54.2969V55.7031H167.766V53.4531H174.527V53.1953C174.527 52.7266 174.441 52.3086 174.27 51.9414C174.105 51.5664 173.855 51.2695 173.52 51.0508C173.184 50.832 172.754 50.7227 172.23 50.7227C171.785 50.7227 171.402 50.8203 171.082 51.0156C170.762 51.2109 170.5 51.4844 170.297 51.8359C170.102 52.1875 169.953 52.6016 169.852 53.0781C169.758 53.5469 169.711 54.0625 169.711 54.625V55.0938C169.711 55.6016 169.781 56.0703 169.922 56.5C170.07 56.9297 170.277 57.3008 170.543 57.6133C170.816 57.9258 171.145 58.168 171.527 58.3398C171.918 58.5117 172.359 58.5977 172.852 58.5977C173.461 58.5977 174.027 58.4805 174.551 58.2461C175.082 58.0039 175.539 57.6406 175.922 57.1562L177.562 58.9375C177.297 59.3203 176.934 59.6875 176.473 60.0391C176.02 60.3906 175.473 60.6797 174.832 60.9062C174.191 61.125 173.461 61.2344 172.641 61.2344ZM183.07 51.0273V61H179.695V48.3203H182.859L183.07 51.0273ZM182.578 54.2148H181.664C181.664 53.2773 181.785 52.4336 182.027 51.6836C182.27 50.9258 182.609 50.2812 183.047 49.75C183.484 49.2109 184.004 48.8008 184.605 48.5195C185.215 48.2305 185.895 48.0859 186.645 48.0859C187.238 48.0859 187.781 48.1719 188.273 48.3438C188.766 48.5156 189.188 48.7891 189.539 49.1641C189.898 49.5391 190.172 50.0352 190.359 50.6523C190.555 51.2695 190.652 52.0234 190.652 52.9141V61H187.254V52.9023C187.254 52.3398 187.176 51.9023 187.02 51.5898C186.863 51.2773 186.633 51.0586 186.328 50.9336C186.031 50.8008 185.664 50.7344 185.227 50.7344C184.773 50.7344 184.379 50.8242 184.043 51.0039C183.715 51.1836 183.441 51.4336 183.223 51.7539C183.012 52.0664 182.852 52.4336 182.742 52.8555C182.633 53.2773 182.578 53.7305 182.578 54.2148ZM200.074 57.4961C200.074 57.2539 200.004 57.0352 199.863 56.8398C199.723 56.6445 199.461 56.4648 199.078 56.3008C198.703 56.1289 198.16 55.9727 197.449 55.832C196.809 55.6914 196.211 55.5156 195.656 55.3047C195.109 55.0859 194.633 54.8242 194.227 54.5195C193.828 54.2148 193.516 53.8555 193.289 53.4414C193.062 53.0195 192.949 52.5391 192.949 52C192.949 51.4688 193.062 50.9688 193.289 50.5C193.523 50.0312 193.855 49.6172 194.285 49.2578C194.723 48.8906 195.254 48.6055 195.879 48.4023C196.512 48.1914 197.223 48.0859 198.012 48.0859C199.113 48.0859 200.059 48.2617 200.848 48.6133C201.645 48.9648 202.254 49.4492 202.676 50.0664C203.105 50.6758 203.32 51.3711 203.32 52.1523H199.945C199.945 51.8242 199.875 51.5312 199.734 51.2734C199.602 51.0078 199.391 50.8008 199.102 50.6523C198.82 50.4961 198.453 50.418 198 50.418C197.625 50.418 197.301 50.4844 197.027 50.6172C196.754 50.7422 196.543 50.9141 196.395 51.1328C196.254 51.3438 196.184 51.5781 196.184 51.8359C196.184 52.0312 196.223 52.207 196.301 52.3633C196.387 52.5117 196.523 52.6484 196.711 52.7734C196.898 52.8984 197.141 53.0156 197.438 53.125C197.742 53.2266 198.117 53.3203 198.562 53.4062C199.477 53.5938 200.293 53.8398 201.012 54.1445C201.73 54.4414 202.301 54.8477 202.723 55.3633C203.145 55.8711 203.355 56.5391 203.355 57.3672C203.355 57.9297 203.23 58.4453 202.98 58.9141C202.73 59.3828 202.371 59.793 201.902 60.1445C201.434 60.4883 200.871 60.7578 200.215 60.9531C199.566 61.1406 198.836 61.2344 198.023 61.2344C196.844 61.2344 195.844 61.0234 195.023 60.6016C194.211 60.1797 193.594 59.6445 193.172 58.9961C192.758 58.3398 192.551 57.668 192.551 56.9805H195.75C195.766 57.4414 195.883 57.8125 196.102 58.0938C196.328 58.375 196.613 58.5781 196.957 58.7031C197.309 58.8281 197.688 58.8906 198.094 58.8906C198.531 58.8906 198.895 58.832 199.184 58.7148C199.473 58.5898 199.691 58.4258 199.84 58.2227C199.996 58.0117 200.074 57.7695 200.074 57.4961ZM211.383 61.2344C210.398 61.2344 209.516 61.0781 208.734 60.7656C207.953 60.4453 207.289 60.0039 206.742 59.4414C206.203 58.8789 205.789 58.2266 205.5 57.4844C205.211 56.7344 205.066 55.9375 205.066 55.0938V54.625C205.066 53.6641 205.203 52.7852 205.477 51.9883C205.75 51.1914 206.141 50.5 206.648 49.9141C207.164 49.3281 207.789 48.8789 208.523 48.5664C209.258 48.2461 210.086 48.0859 211.008 48.0859C211.906 48.0859 212.703 48.2344 213.398 48.5312C214.094 48.8281 214.676 49.25 215.145 49.7969C215.621 50.3438 215.98 51 216.223 51.7656C216.465 52.5234 216.586 53.3672 216.586 54.2969V55.7031H206.508V53.4531H213.27V53.1953C213.27 52.7266 213.184 52.3086 213.012 51.9414C212.848 51.5664 212.598 51.2695 212.262 51.0508C211.926 50.832 211.496 50.7227 210.973 50.7227C210.527 50.7227 210.145 50.8203 209.824 51.0156C209.504 51.2109 209.242 51.4844 209.039 51.8359C208.844 52.1875 208.695 52.6016 208.594 53.0781C208.5 53.5469 208.453 54.0625 208.453 54.625V55.0938C208.453 55.6016 208.523 56.0703 208.664 56.5C208.812 56.9297 209.02 57.3008 209.285 57.6133C209.559 57.9258 209.887 58.168 210.27 58.3398C210.66 58.5117 211.102 58.5977 211.594 58.5977C212.203 58.5977 212.77 58.4805 213.293 58.2461C213.824 58.0039 214.281 57.6406 214.664 57.1562L216.305 58.9375C216.039 59.3203 215.676 59.6875 215.215 60.0391C214.762 60.3906 214.215 60.6797 213.574 60.9062C212.934 61.125 212.203 61.2344 211.383 61.2344Z" fill="#888888"/>
<path d="M1134 0H1348C1356.28 0 1363 6.71573 1363 15V148C1363 156.284 1356.28 163 1348 163H1134V0Z" fill="#527FF4"/>
<path d="M1281 46.5H1216L1213.5 49V114L1216 116.5H1281L1283.5 114V49L1281 46.5ZM1278.5 111.5H1233.5V101.5H1245C1246.5 104.5 1250 106.5 1253.5 106.5C1259 106.5 1263.5 102 1263.5 96.5C1263.5 91 1259 86.5 1253.5 86.5C1248 86.5 1243.5 91 1243.5 96.5H1228.5V111.5H1218.5V51.5H1228.5V63C1225.5 64.5 1223.5 68 1223.5 71.5C1223.5 77 1228 81.5 1233.5 81.5C1239 81.5 1243.5 77 1243.5 71.5H1253.5C1253.5 77 1258 81.5 1263.5 81.5C1269 81.5 1273.5 77 1273.5 71.5C1273.5 66 1269 61.5 1263.5 61.5C1260 61.5 1256.5 63.5 1255 66.5H1242C1240.5 63.5 1237 61.5 1233.5 61.5V51.5H1278.5V111.5ZM1248.5 96.5C1248.5 93.5 1250.5 91.5 1253.5 91.5C1256.5 91.5 1258.5 93.5 1258.5 96.5C1258.5 99.5 1256.5 101.5 1253.5 101.5C1250.5 101.5 1248.5 99.5 1248.5 96.5ZM1233.5 66.5C1236.5 66.5 1238.5 68.5 1238.5 71.5C1238.5 74.5 1236.5 76.5 1233.5 76.5C1230.5 76.5 1228.5 74.5 1228.5 71.5C1228.5 68.5 1230.5 66.5 1233.5 66.5ZM1263.5 66.5C1266.5 66.5 1268.5 68.5 1268.5 71.5C1268.5 74.5 1266.5 76.5 1263.5 76.5C1260.5 76.5 1258.5 74.5 1258.5 71.5C1258.5 68.5 1260.5 66.5 1263.5 66.5Z" fill="white"/>
<path d="M131.19 103.884H121.957C121.834 102.936 121.582 102.08 121.2 101.317C120.819 100.554 120.314 99.901 119.686 99.3594C119.058 98.8177 118.313 98.4053 117.452 98.1222C116.602 97.8267 115.661 97.679 114.626 97.679C112.792 97.679 111.21 98.1283 109.881 99.027C108.563 99.9257 107.548 101.224 106.834 102.923C106.132 104.622 105.781 106.678 105.781 109.091C105.781 111.602 106.138 113.707 106.852 115.406C107.579 117.093 108.594 118.367 109.899 119.229C111.216 120.078 112.774 120.503 114.571 120.503C115.58 120.503 116.498 120.374 117.322 120.115C118.16 119.857 118.892 119.481 119.52 118.989C120.16 118.484 120.683 117.875 121.089 117.161C121.508 116.434 121.797 115.616 121.957 114.705L131.19 114.76C131.03 116.434 130.544 118.084 129.732 119.709C128.931 121.334 127.83 122.817 126.426 124.159C125.023 125.489 123.312 126.547 121.293 127.335C119.286 128.123 116.984 128.517 114.386 128.517C110.964 128.517 107.899 127.766 105.19 126.264C102.494 124.75 100.365 122.546 98.8011 119.653C97.2377 116.76 96.456 113.24 96.456 109.091C96.456 104.93 97.25 101.403 98.8381 98.5099C100.426 95.617 102.574 93.4195 105.283 91.9176C107.991 90.4157 111.026 89.6648 114.386 89.6648C116.676 89.6648 118.794 89.9848 120.739 90.625C122.684 91.2528 124.395 92.1761 125.872 93.3949C127.349 94.6013 128.55 96.0848 129.473 97.8452C130.396 99.6056 130.969 101.618 131.19 103.884ZM136.421 128V99.6364H145.451V128H136.421ZM140.945 96.331C139.677 96.331 138.587 95.9124 137.676 95.0753C136.766 94.2259 136.31 93.2041 136.31 92.0099C136.31 90.8281 136.766 89.8187 137.676 88.9815C138.587 88.1321 139.677 87.7074 140.945 87.7074C142.225 87.7074 143.315 88.1321 144.213 88.9815C145.124 89.8187 145.58 90.8281 145.58 92.0099C145.58 93.2041 145.124 94.2259 144.213 95.0753C143.315 95.9124 142.225 96.331 140.945 96.331ZM151.198 128V99.6364H159.969V104.807H160.265C160.782 102.936 161.625 101.545 162.795 100.634C163.964 99.7102 165.325 99.2486 166.876 99.2486C167.294 99.2486 167.725 99.2794 168.168 99.3409C168.612 99.3902 169.024 99.4702 169.406 99.581V107.429C168.975 107.281 168.408 107.164 167.707 107.078C167.017 106.992 166.402 106.949 165.86 106.949C164.789 106.949 163.823 107.189 162.961 107.669C162.112 108.137 161.441 108.795 160.948 109.645C160.468 110.482 160.228 111.467 160.228 112.599V128H151.198ZM184.852 128.536C181.861 128.536 179.294 127.92 177.152 126.689C175.022 125.458 173.385 123.747 172.24 121.555C171.095 119.352 170.523 116.804 170.523 113.911C170.523 111.005 171.095 108.457 172.24 106.266C173.397 104.062 175.041 102.345 177.17 101.114C179.313 99.8826 181.867 99.267 184.834 99.267C187.456 99.267 189.74 99.741 191.685 100.689C193.642 101.637 195.169 102.979 196.264 104.714C197.372 106.438 197.957 108.463 198.018 110.79H189.58C189.407 109.337 188.915 108.198 188.102 107.374C187.302 106.549 186.256 106.136 184.963 106.136C183.917 106.136 183 106.432 182.212 107.023C181.424 107.601 180.808 108.463 180.365 109.608C179.934 110.741 179.719 112.144 179.719 113.818C179.719 115.492 179.934 116.908 180.365 118.065C180.808 119.21 181.424 120.078 182.212 120.669C183 121.248 183.917 121.537 184.963 121.537C185.8 121.537 186.539 121.358 187.179 121.001C187.831 120.644 188.367 120.121 188.786 119.432C189.204 118.73 189.469 117.881 189.58 116.884H198.018C197.932 119.223 197.348 121.266 196.264 123.014C195.193 124.762 193.685 126.123 191.74 127.095C189.807 128.055 187.511 128.536 184.852 128.536ZM220.939 115.757V99.6364H229.951V128H221.346V122.719H221.05C220.422 124.455 219.351 125.833 217.837 126.855C216.335 127.865 214.519 128.369 212.39 128.369C210.457 128.369 208.758 127.926 207.293 127.04C205.828 126.153 204.689 124.916 203.877 123.328C203.064 121.728 202.652 119.857 202.64 117.714V99.6364H211.669V115.942C211.682 117.481 212.088 118.693 212.888 119.58C213.688 120.466 214.778 120.909 216.157 120.909C217.055 120.909 217.862 120.712 218.576 120.318C219.302 119.912 219.874 119.327 220.293 118.564C220.724 117.788 220.939 116.853 220.939 115.757ZM235.698 128V99.6364H244.728V128H235.698ZM240.222 96.331C238.954 96.331 237.865 95.9124 236.954 95.0753C236.043 94.2259 235.587 93.2041 235.587 92.0099C235.587 90.8281 236.043 89.8187 236.954 88.9815C237.865 88.1321 238.954 87.7074 240.222 87.7074C241.503 87.7074 242.592 88.1321 243.491 88.9815C244.402 89.8187 244.857 90.8281 244.857 92.0099C244.857 93.2041 244.402 94.2259 243.491 95.0753C242.592 95.9124 241.503 96.331 240.222 96.331ZM266.485 99.6364V106.284H248.592V99.6364H266.485ZM252.341 92.8409H261.37V119.081C261.37 119.635 261.457 120.084 261.629 120.429C261.814 120.761 262.078 121.001 262.423 121.149C262.768 121.285 263.18 121.352 263.66 121.352C264.005 121.352 264.368 121.321 264.75 121.26C265.144 121.186 265.439 121.125 265.636 121.075L267.002 127.594C266.572 127.717 265.962 127.871 265.174 128.055C264.399 128.24 263.469 128.357 262.386 128.406C260.269 128.505 258.453 128.259 256.939 127.668C255.437 127.064 254.286 126.129 253.485 124.861C252.698 123.593 252.316 121.999 252.341 120.078V92.8409ZM296.243 128H282.265V90.1818H296.225C300.078 90.1818 303.396 90.9389 306.178 92.4531C308.972 93.955 311.127 96.1217 312.641 98.9531C314.155 101.772 314.912 105.145 314.912 109.072C314.912 113.012 314.155 116.397 312.641 119.229C311.139 122.06 308.991 124.233 306.196 125.747C303.402 127.249 300.084 128 296.243 128ZM291.405 120.207H295.892C298.01 120.207 299.801 119.85 301.266 119.136C302.743 118.41 303.857 117.234 304.608 115.609C305.372 113.972 305.753 111.793 305.753 109.072C305.753 106.352 305.372 104.185 304.608 102.572C303.845 100.947 302.719 99.7779 301.229 99.0639C299.752 98.3376 297.93 97.9744 295.763 97.9744H291.405V120.207ZM320.249 128V99.6364H329.279V128H320.249ZM324.773 96.331C323.505 96.331 322.416 95.9124 321.505 95.0753C320.594 94.2259 320.138 93.2041 320.138 92.0099C320.138 90.8281 320.594 89.8187 321.505 88.9815C322.416 88.1321 323.505 87.7074 324.773 87.7074C326.053 87.7074 327.143 88.1321 328.042 88.9815C328.953 89.8187 329.408 90.8281 329.408 92.0099C329.408 93.2041 328.953 94.2259 328.042 95.0753C327.143 95.9124 326.053 96.331 324.773 96.331ZM343.022 128.48C341.212 128.48 339.606 128.179 338.202 127.575C336.811 126.96 335.71 126.036 334.897 124.805C334.097 123.562 333.697 122.005 333.697 120.134C333.697 118.558 333.974 117.228 334.528 116.145C335.082 115.062 335.845 114.181 336.817 113.504C337.79 112.827 338.91 112.316 340.178 111.972C341.446 111.615 342.8 111.375 344.241 111.251C345.853 111.104 347.152 110.95 348.137 110.79C349.122 110.617 349.836 110.377 350.279 110.07C350.735 109.75 350.962 109.3 350.962 108.722V108.629C350.962 107.681 350.636 106.949 349.984 106.432C349.331 105.915 348.451 105.656 347.343 105.656C346.149 105.656 345.189 105.915 344.462 106.432C343.736 106.949 343.274 107.663 343.077 108.574L334.749 108.278C334.996 106.555 335.629 105.016 336.651 103.662C337.685 102.295 339.101 101.224 340.898 100.449C342.708 99.661 344.881 99.267 347.417 99.267C349.227 99.267 350.895 99.4825 352.421 99.9134C353.948 100.332 355.277 100.947 356.41 101.76C357.542 102.56 358.416 103.545 359.032 104.714C359.66 105.884 359.974 107.22 359.974 108.722V128H351.479V124.048H351.258C350.753 125.009 350.107 125.821 349.319 126.486C348.543 127.151 347.626 127.649 346.567 127.982C345.521 128.314 344.339 128.48 343.022 128.48ZM345.81 122.571C346.783 122.571 347.657 122.374 348.433 121.98C349.22 121.586 349.848 121.045 350.316 120.355C350.784 119.653 351.018 118.841 351.018 117.918V115.222C350.759 115.357 350.445 115.48 350.076 115.591C349.719 115.702 349.325 115.806 348.894 115.905C348.463 116.003 348.02 116.089 347.565 116.163C347.109 116.237 346.672 116.305 346.254 116.366C345.404 116.502 344.678 116.711 344.075 116.994C343.484 117.277 343.028 117.647 342.708 118.102C342.4 118.545 342.246 119.075 342.246 119.69C342.246 120.626 342.579 121.34 343.244 121.832C343.921 122.325 344.776 122.571 345.81 122.571ZM378.717 139.227C376.021 139.227 373.712 138.852 371.792 138.101C369.871 137.35 368.363 136.322 367.268 135.017C366.172 133.712 365.513 132.235 365.292 130.585L373.842 130.105C374.002 130.684 374.297 131.188 374.728 131.619C375.171 132.05 375.744 132.383 376.445 132.616C377.159 132.85 377.996 132.967 378.957 132.967C380.471 132.967 381.72 132.598 382.705 131.859C383.702 131.133 384.201 129.859 384.201 128.037V123.051H383.887C383.53 123.925 382.988 124.707 382.262 125.396C381.536 126.086 380.631 126.627 379.548 127.021C378.477 127.415 377.246 127.612 375.854 127.612C373.786 127.612 371.89 127.132 370.167 126.172C368.456 125.199 367.083 123.697 366.049 121.666C365.027 119.623 364.516 116.994 364.516 113.781C364.516 110.47 365.046 107.743 366.104 105.601C367.163 103.446 368.548 101.852 370.259 100.818C371.983 99.7841 373.835 99.267 375.817 99.267C377.307 99.267 378.581 99.5256 379.64 100.043C380.711 100.547 381.591 101.2 382.281 102C382.97 102.8 383.493 103.631 383.85 104.493H384.109V99.6364H393.102V128.111C393.102 130.511 392.498 132.536 391.292 134.186C390.085 135.836 388.399 137.085 386.232 137.935C384.066 138.796 381.56 139.227 378.717 139.227ZM378.994 121.038C380.089 121.038 381.025 120.749 381.8 120.17C382.576 119.592 383.173 118.761 383.592 117.678C384.01 116.594 384.219 115.295 384.219 113.781C384.219 112.242 384.01 110.919 383.592 109.811C383.185 108.691 382.588 107.829 381.8 107.226C381.025 106.623 380.089 106.321 378.994 106.321C377.873 106.321 376.925 106.629 376.15 107.244C375.374 107.86 374.783 108.728 374.377 109.848C373.983 110.956 373.786 112.267 373.786 113.781C373.786 115.295 373.989 116.594 374.396 117.678C374.802 118.761 375.387 119.592 376.15 120.17C376.925 120.749 377.873 121.038 378.994 121.038ZM398.858 128V99.6364H407.63V104.807H407.925C408.442 102.936 409.285 101.545 410.455 100.634C411.624 99.7102 412.985 99.2486 414.536 99.2486C414.954 99.2486 415.385 99.2794 415.828 99.3409C416.272 99.3902 416.684 99.4702 417.066 99.581V107.429C416.635 107.281 416.069 107.164 415.367 107.078C414.677 106.992 414.062 106.949 413.52 106.949C412.449 106.949 411.483 107.189 410.621 107.669C409.772 108.137 409.101 108.795 408.608 109.645C408.128 110.482 407.888 111.467 407.888 112.599V128H398.858ZM427.674 128.48C425.865 128.48 424.258 128.179 422.855 127.575C421.464 126.96 420.362 126.036 419.549 124.805C418.749 123.562 418.349 122.005 418.349 120.134C418.349 118.558 418.626 117.228 419.18 116.145C419.734 115.062 420.497 114.181 421.47 113.504C422.442 112.827 423.563 112.316 424.831 111.972C426.099 111.615 427.453 111.375 428.893 111.251C430.506 111.104 431.805 110.95 432.789 110.79C433.774 110.617 434.488 110.377 434.931 110.07C435.387 109.75 435.615 109.3 435.615 108.722V108.629C435.615 107.681 435.288 106.949 434.636 106.432C433.984 105.915 433.103 105.656 431.995 105.656C430.801 105.656 429.841 105.915 429.115 106.432C428.388 106.949 427.927 107.663 427.73 108.574L419.402 108.278C419.648 106.555 420.282 105.016 421.304 103.662C422.338 102.295 423.753 101.224 425.551 100.449C427.36 99.661 429.533 99.267 432.069 99.267C433.879 99.267 435.547 99.4825 437.074 99.9134C438.6 100.332 439.93 100.947 441.062 101.76C442.195 102.56 443.069 103.545 443.684 104.714C444.312 105.884 444.626 107.22 444.626 108.722V128H436.132V124.048H435.91C435.405 125.009 434.759 125.821 433.971 126.486C433.196 127.151 432.279 127.649 431.22 127.982C430.173 128.314 428.992 128.48 427.674 128.48ZM430.463 122.571C431.435 122.571 432.309 122.374 433.085 121.98C433.873 121.586 434.501 121.045 434.968 120.355C435.436 119.653 435.67 118.841 435.67 117.918V115.222C435.412 115.357 435.098 115.48 434.728 115.591C434.371 115.702 433.977 115.806 433.547 115.905C433.116 116.003 432.672 116.089 432.217 116.163C431.761 116.237 431.324 116.305 430.906 116.366C430.056 116.502 429.33 116.711 428.727 116.994C428.136 117.277 427.681 117.647 427.36 118.102C427.053 118.545 426.899 119.075 426.899 119.69C426.899 120.626 427.231 121.34 427.896 121.832C428.573 122.325 429.429 122.571 430.463 122.571ZM450.147 128V99.6364H458.734V104.844H459.048C459.639 103.12 460.636 101.76 462.039 100.763C463.443 99.7656 465.117 99.267 467.062 99.267C469.032 99.267 470.718 99.7718 472.122 100.781C473.525 101.791 474.418 103.145 474.799 104.844H475.095C475.624 103.157 476.658 101.809 478.197 100.8C479.736 99.7779 481.552 99.267 483.645 99.267C486.328 99.267 488.507 100.129 490.181 101.852C491.856 103.563 492.693 105.915 492.693 108.906V128H483.663V110.974C483.663 109.559 483.3 108.482 482.574 107.743C481.847 106.992 480.905 106.616 479.748 106.616C478.505 106.616 477.526 107.023 476.812 107.835C476.11 108.635 475.76 109.713 475.76 111.067V128H467.081V110.882C467.081 109.565 466.724 108.525 466.01 107.761C465.296 106.998 464.354 106.616 463.184 106.616C462.396 106.616 461.701 106.807 461.098 107.189C460.494 107.558 460.02 108.088 459.676 108.777C459.343 109.466 459.177 110.279 459.177 111.214V128H450.147Z" fill="black"/>
</g>
<defs>
<clipPath id="clip0_151_318">
<rect width="1363" height="163" fill="white"/>
</clipPath>
</defs>
</svg>
